<svg xmlns="http://www.w3.org/2000/svg" xmlns:xlink="http://www.w3.org/1999/xlink" width="500" zoomAndPan="magnify" viewBox="0 0 375 374.999991" height="500" preserveAspectRatio="xMidYMid meet" version="1.0"><defs><g><g id="id1"/></g><clipPath id="id2"><path d="M 12.382812 77 L 178.882812 77 L 178.882812 295 L 12.382812 295 Z M 12.382812 77 " clip-rule="nonzero"/></clipPath><clipPath id="id3"><path d="M 36 278 L 100 278 L 100 299.085938 L 36 299.085938 Z M 36 278 " clip-rule="nonzero"/></clipPath></defs><path fill="rgb(97.648621%, 92.939758%, 19.60907%)" d="M 150.523438 101.828125 C 144.796875 100.378906 139.320312 98.285156 134.09375 95.539062 C 134.066406 95.613281 134.042969 95.6875 134.011719 95.765625 C 133.3125 97.601562 132.316406 99.257812 131.027344 100.742188 C 137.550781 101.820312 144.117188 102.316406 150.730469 102.230469 C 150.65625 102.078125 150.589844 101.953125 150.523438 101.828125 Z M 150.523438 101.828125 " fill-opacity="1" fill-rule="nonzero"/><path fill="rgb(100%, 93.328857%, 94.119263%)" d="M 128.289062 84.507812 C 125.019531 81.527344 119.300781 79.757812 113.898438 82.539062 C 107.464844 85.851562 106.972656 93.683594 109.070312 107.617188 C 110.03125 113.984375 109.945312 120.691406 110.1875 128.507812 C 110.1875 128.929688 110.1875 130.371094 110.1875 130.769531 C 110.433594 144.394531 103.402344 152.9375 90.257812 157.417969 C 78.644531 161.375 62.230469 169.875 51.351562 187.277344 C 37.800781 208.929688 25.109375 215.882812 18.847656 218.097656 C 21.570312 219.503906 24.449219 220.417969 27.484375 220.847656 C 30.519531 221.273438 33.542969 221.183594 36.546875 220.582031 C 48.460938 218.101562 59.417969 207.695312 69.121094 189.550781 C 69.226562 189.359375 69.363281 189.195312 69.53125 189.054688 C 69.699219 188.917969 69.890625 188.816406 70.097656 188.753906 C 70.308594 188.691406 70.523438 188.671875 70.738281 188.691406 C 70.957031 188.714844 71.160156 188.777344 71.355469 188.878906 C 71.546875 188.984375 71.710938 189.121094 71.851562 189.289062 C 71.988281 189.460938 72.089844 189.648438 72.152344 189.859375 C 72.214844 190.066406 72.234375 190.28125 72.214844 190.5 C 72.191406 190.714844 72.128906 190.921875 72.027344 191.113281 C 62.273438 209.316406 51.128906 220.167969 38.882812 223.414062 C 44.734375 224.976562 54.5 226.390625 63.738281 222.226562 C 73.183594 217.964844 80.078125 208.859375 84.222656 195.148438 C 84.285156 194.9375 84.386719 194.75 84.527344 194.578125 C 84.664062 194.410156 84.832031 194.273438 85.023438 194.167969 C 85.21875 194.066406 85.421875 194.003906 85.640625 193.980469 C 85.859375 193.957031 86.074219 193.980469 86.285156 194.042969 C 86.496094 194.105469 86.683594 194.207031 86.855469 194.347656 C 87.023438 194.484375 87.160156 194.652344 87.265625 194.84375 C 87.367188 195.039062 87.429688 195.242188 87.453125 195.460938 C 87.472656 195.679688 87.453125 195.894531 87.390625 196.105469 C 83.449219 209.125 77.089844 218.3125 68.460938 223.472656 C 72.613281 223.152344 76.644531 222.265625 80.550781 220.816406 C 83.402344 219.734375 86.078125 218.324219 88.574219 216.578125 C 88.777344 216.3125 89.039062 216.125 89.355469 216.015625 C 97.449219 210.011719 102.519531 200.664062 104.464844 188.101562 C 104.5 187.882812 104.570312 187.683594 104.683594 187.496094 C 104.796875 187.308594 104.941406 187.152344 105.121094 187.023438 C 105.296875 186.894531 105.488281 186.800781 105.703125 186.75 C 105.914062 186.699219 106.128906 186.6875 106.34375 186.722656 C 106.5625 186.757812 106.761719 186.828125 106.949219 186.941406 C 107.136719 187.054688 107.292969 187.199219 107.421875 187.378906 C 107.550781 187.554688 107.644531 187.746094 107.695312 187.960938 C 107.746094 188.171875 107.753906 188.386719 107.722656 188.601562 C 105.914062 200.179688 101.664062 208.222656 96.582031 213.816406 C 109.640625 208.71875 117.425781 198.433594 120.289062 182.503906 C 123.15625 166.574219 120.457031 148.675781 118.480469 135.550781 L 118.253906 134.03125 C 115.539062 115.933594 117.800781 107.609375 119.683594 104 C 118.796875 103.789062 117.945312 103.484375 117.125 103.09375 C 116.929688 102.996094 116.761719 102.863281 116.617188 102.695312 C 116.476562 102.53125 116.371094 102.34375 116.300781 102.136719 C 116.234375 101.929688 116.207031 101.71875 116.222656 101.5 C 116.238281 101.28125 116.296875 101.074219 116.394531 100.878906 C 116.492188 100.683594 116.625 100.515625 116.789062 100.375 C 116.957031 100.230469 117.144531 100.125 117.351562 100.054688 C 117.558594 99.988281 117.769531 99.960938 117.988281 99.976562 C 118.207031 99.992188 118.414062 100.050781 118.609375 100.148438 C 118.667969 100.175781 122.175781 101.871094 125.585938 100.574219 C 127.847656 99.703125 129.65625 97.664062 130.9375 94.5 C 132.355469 91.050781 131.355469 87.304688 128.289062 84.507812 Z M 128.289062 84.507812 " fill-opacity="1" fill-rule="nonzero"/><path fill="rgb(36.859131%, 82.749939%, 40.779114%)" d="M 138.101562 159.664062 C 139.820312 163.5 143.078125 165.796875 148.019531 166.671875 C 156.691406 168.214844 164.425781 166.785156 169.238281 162.75 C 173.039062 159.582031 174.964844 154.972656 174.964844 149.105469 C 174.964844 136.355469 158.121094 113.484375 152.976562 106.804688 C 148.253906 114.945312 131.695312 145.355469 138.101562 159.664062 Z M 138.101562 159.664062 " fill-opacity="1" fill-rule="nonzero"/><path fill="rgb(22.349548%, 70.979309%, 29.019165%)" d="M 153.1875 99.0625 L 153.585938 98.511719 C 154.222656 97.632812 155.914062 95.289062 156.535156 93.898438 C 156.316406 93.949219 156.050781 94.027344 155.730469 94.136719 C 154.074219 94.691406 153.074219 95.492188 152.753906 96.515625 C 152.542969 97.359375 152.59375 98.1875 152.902344 99 Z M 153.1875 99.0625 " fill-opacity="1" fill-rule="nonzero"/><path fill="rgb(58.039856%, 100%, 59.999084%)" d="M 169.238281 162.75 C 173.039062 159.582031 174.964844 154.972656 174.964844 149.105469 C 174.964844 136.355469 158.121094 113.484375 152.976562 106.804688 C 152.976562 106.804688 178.835938 146.503906 169.238281 162.75 Z M 169.238281 162.75 " fill-opacity="1" fill-rule="nonzero"/><path fill="rgb(19.219971%, 68.629456%, 21.958923%)" d="M 142.316406 128.519531 C 137.871094 139.578125 134.652344 151.964844 138.101562 159.679688 C 139.820312 163.515625 143.078125 165.808594 148.019531 166.6875 C 156.691406 168.230469 164.425781 166.800781 169.238281 162.765625 C 129.636719 173.265625 142.21875 128.839844 142.316406 128.519531 Z M 142.316406 128.519531 " fill-opacity="1" fill-rule="nonzero"/><path fill="rgb(19.219971%, 68.629456%, 21.958923%)" d="M 147.523438 123.738281 C 147.167969 124.191406 148.390625 140.519531 162.265625 153.816406 Z M 147.523438 123.738281 " fill-opacity="1" fill-rule="nonzero"/><path fill="rgb(91.758728%, 70.979309%, 73.728943%)" d="M 96.59375 213.816406 C 109.648438 208.71875 117.4375 198.433594 120.300781 182.503906 C 123.164062 166.574219 120.46875 148.675781 118.488281 135.550781 C 118.488281 135.550781 124.652344 186.363281 102.34375 201.789062 " fill-opacity="1" fill-rule="nonzero"/><path fill="rgb(91.758728%, 70.979309%, 73.728943%)" d="M 104.472656 188.101562 C 104.472656 188.101562 94.3125 213.777344 75.214844 215.738281 L 68.457031 223.472656 C 68.457031 223.472656 78.917969 222.71875 87.457031 219.261719 C 96 215.808594 105.34375 196.71875 104.472656 188.101562 Z M 104.472656 188.101562 " fill-opacity="1" fill-rule="nonzero"/><path fill="rgb(91.758728%, 70.979309%, 73.728943%)" d="M 84.226562 195.148438 C 84.226562 195.148438 72.1875 217.425781 50.855469 217.566406 L 37.355469 223.472656 C 37.355469 223.472656 53.167969 232.667969 66.40625 222.757812 C 79.644531 212.84375 86.457031 201.8125 84.226562 195.148438 Z M 84.226562 195.148438 " fill-opacity="1" fill-rule="nonzero"/><path fill="rgb(91.758728%, 70.979309%, 73.728943%)" d="M 69.121094 189.550781 C 69.121094 189.550781 50.339844 215.386719 27.226562 213.816406 L 17.648438 217.566406 C 17.648438 217.566406 30.035156 227.519531 46.875 218.214844 C 63.714844 208.90625 70.578125 190.332031 70.578125 190.332031 " fill-opacity="1" fill-rule="nonzero"/><path fill="rgb(91.758728%, 70.979309%, 73.728943%)" d="M 131.027344 90.164062 C 131.027344 90.164062 131.226562 98.375 117.296875 100.117188 C 117.296875 100.101562 132.460938 107.707031 131.027344 90.164062 Z M 131.027344 90.164062 " fill-opacity="1" fill-rule="nonzero"/><path fill="rgb(91.758728%, 70.979309%, 73.728943%)" d="M 117.140625 103.113281 L 117.589844 111.046875 L 121.542969 103.113281 Z M 117.140625 103.113281 " fill-opacity="1" fill-rule="nonzero"/><path fill="rgb(33.729553%, 23.919678%, 25.489807%)" d="M 125.636719 89.4375 C 125.636719 89.988281 125.566406 90.515625 125.421875 91.023438 C 125.28125 91.53125 125.078125 91.980469 124.8125 92.371094 C 124.546875 92.757812 124.242188 93.058594 123.894531 93.269531 C 123.550781 93.476562 123.191406 93.582031 122.816406 93.582031 C 122.441406 93.582031 122.082031 93.476562 121.734375 93.269531 C 121.390625 93.058594 121.082031 92.757812 120.820312 92.371094 C 120.554688 91.980469 120.351562 91.53125 120.207031 91.023438 C 120.0625 90.515625 119.992188 89.988281 119.992188 89.4375 C 119.992188 88.890625 120.0625 88.359375 120.207031 87.851562 C 120.351562 87.34375 120.554688 86.898438 120.820312 86.507812 C 121.082031 86.121094 121.390625 85.820312 121.734375 85.609375 C 122.082031 85.398438 122.441406 85.292969 122.816406 85.292969 C 123.191406 85.292969 123.550781 85.398438 123.894531 85.609375 C 124.242188 85.820312 124.546875 86.121094 124.8125 86.507812 C 125.078125 86.898438 125.28125 87.34375 125.421875 87.851562 C 125.566406 88.359375 125.636719 88.890625 125.636719 89.4375 Z M 125.636719 89.4375 " fill-opacity="1" fill-rule="nonzero"/><g clip-path="url(#id2)"><path fill="rgb(33.729553%, 23.919678%, 25.489807%)" d="M 156.808594 105.621094 C 161.3125 105.171875 163.640625 104.441406 163.859375 104.375 C 164.089844 104.300781 164.300781 104.1875 164.496094 104.042969 C 164.6875 103.894531 164.851562 103.71875 164.984375 103.515625 C 165.113281 103.3125 165.210938 103.089844 165.265625 102.855469 C 165.320312 102.621094 165.335938 102.378906 165.308594 102.140625 C 165.28125 101.898438 165.214844 101.667969 165.109375 101.449219 C 165.003906 101.230469 164.863281 101.039062 164.691406 100.867188 C 164.515625 100.699219 164.320312 100.5625 164.101562 100.460938 C 163.878906 100.359375 163.648438 100.296875 163.40625 100.273438 C 161.355469 100.085938 159.390625 99.824219 157.523438 99.484375 C 159.921875 96.058594 161.429688 93.265625 159.960938 91.261719 C 158.488281 89.257812 155.527344 90.25 154.53125 90.574219 C 150.960938 91.773438 149.644531 93.867188 149.164062 95.410156 C 148.960938 96.074219 148.863281 96.753906 148.871094 97.445312 C 144.152344 96.074219 139.628906 94.226562 135.296875 91.90625 C 135.457031 88.214844 133.890625 84.546875 130.808594 81.734375 C 126.578125 77.875 119.183594 75.585938 112.179688 79.207031 C 102.945312 83.960938 104.125 95.492188 105.617188 110.109375 C 106.246094 116.289062 106.976562 123.292969 106.976562 130.574219 C 106.976562 146.714844 95.894531 151.839844 92.5 153.023438 C 91.476562 153.382812 90.132812 153.855469 88.789062 154.378906 C 76.320312 159.304688 60.445312 167.253906 48.222656 185.214844 C 29.507812 212.722656 14.507812 215.386719 14.378906 215.386719 C 13.960938 215.445312 13.597656 215.613281 13.28125 215.890625 C 12.964844 216.167969 12.753906 216.511719 12.640625 216.914062 C 12.53125 217.320312 12.542969 217.722656 12.671875 218.121094 C 12.800781 218.523438 13.03125 218.851562 13.359375 219.113281 C 15.953125 220.988281 18.773438 222.421875 21.816406 223.40625 C 24.863281 224.390625 27.984375 224.886719 31.1875 224.886719 L 31.722656 224.886719 C 31.796875 224.933594 31.871094 224.972656 31.949219 225.007812 C 37.789062 227.472656 43.878906 228.722656 50.214844 228.753906 C 53.875 228.773438 57.464844 228.265625 60.976562 227.238281 C 61.628906 227.304688 62.90625 227.398438 64.648438 227.398438 C 69.621094 227.398438 74.488281 226.671875 79.246094 225.214844 L 71.316406 232.15625 C 70.773438 232.628906 70.539062 233.226562 70.605469 233.941406 C 70.675781 234.65625 71.023438 235.195312 71.640625 235.558594 L 83.148438 242.285156 L 83.148438 276.011719 C 81.765625 276.011719 80.386719 276.042969 79.03125 276.074219 C 78.75 276.082031 78.484375 276.140625 78.226562 276.253906 C 77.972656 276.367188 77.75 276.527344 77.558594 276.726562 C 77.363281 276.929688 77.21875 277.160156 77.117188 277.421875 C 77.019531 277.683594 76.972656 277.953125 76.976562 278.230469 C 76.984375 278.511719 77.042969 278.777344 77.15625 279.03125 C 77.269531 279.289062 77.429688 279.511719 77.628906 279.703125 C 77.832031 279.894531 78.0625 280.042969 78.324219 280.140625 C 78.585938 280.242188 78.855469 280.289062 79.132812 280.28125 C 80.460938 280.25 81.804688 280.234375 83.148438 280.21875 L 83.148438 286.417969 C 83.148438 286.695312 83.199219 286.964844 83.308594 287.222656 C 83.414062 287.480469 83.566406 287.707031 83.761719 287.90625 C 83.960938 288.101562 84.1875 288.253906 84.445312 288.363281 C 84.703125 288.46875 84.972656 288.519531 85.25 288.523438 C 85.53125 288.519531 85.796875 288.46875 86.054688 288.359375 C 86.3125 288.253906 86.539062 288.101562 86.738281 287.90625 C 86.933594 287.707031 87.085938 287.480469 87.195312 287.222656 C 87.300781 286.964844 87.355469 286.695312 87.355469 286.417969 L 87.355469 280.207031 C 98.421875 280.3125 108.816406 281.214844 116.851562 282.761719 C 126.636719 284.652344 129.390625 286.855469 129.621094 287.53125 C 129.542969 287.703125 128.875 288.859375 124.644531 290.3125 C 124.386719 290.40625 124.15625 290.546875 123.953125 290.734375 C 123.75 290.917969 123.589844 291.132812 123.46875 291.382812 C 123.351562 291.628906 123.285156 291.890625 123.269531 292.164062 C 123.253906 292.4375 123.289062 292.707031 123.378906 292.964844 C 123.46875 293.226562 123.601562 293.460938 123.78125 293.667969 C 123.960938 293.875 124.175781 294.039062 124.417969 294.164062 C 124.664062 294.289062 124.921875 294.363281 125.195312 294.382812 C 125.46875 294.40625 125.738281 294.375 126 294.292969 C 131.253906 292.484375 133.804688 290.273438 133.804688 287.535156 C 133.804688 283.742188 128.773438 280.882812 118.421875 278.789062 C 110.019531 277.09375 99.054688 276.113281 87.316406 275.992188 L 87.316406 244.746094 L 93.289062 248.234375 C 95.929688 249.773438 98.210938 251.734375 100.136719 254.109375 C 102.058594 256.488281 103.5 259.128906 104.460938 262.03125 C 104.542969 262.304688 104.675781 262.546875 104.855469 262.765625 C 105.035156 262.984375 105.253906 263.160156 105.503906 263.289062 C 105.753906 263.421875 106.023438 263.496094 106.304688 263.519531 C 106.585938 263.542969 106.863281 263.507812 107.132812 263.421875 C 107.402344 263.332031 107.644531 263.195312 107.855469 263.007812 C 108.070312 262.820312 108.238281 262.601562 108.363281 262.347656 C 108.488281 262.09375 108.558594 261.824219 108.574219 261.539062 C 108.589844 261.257812 108.550781 260.980469 108.457031 260.714844 C 107.902344 259.035156 107.199219 257.414062 106.351562 255.863281 C 105.503906 254.308594 104.523438 252.84375 103.410156 251.464844 C 102.296875 250.089844 101.066406 248.824219 99.722656 247.671875 C 98.382812 246.515625 96.945312 245.492188 95.417969 244.601562 L 87.316406 239.867188 L 87.316406 221.742188 C 88.542969 221.054688 89.726562 220.300781 90.871094 219.480469 C 133.367188 209.476562 126.128906 161.0625 122.214844 134.996094 L 121.988281 133.480469 C 118.933594 113.019531 122.53125 106.296875 123.605469 104.808594 C 124.738281 104.742188 125.835938 104.507812 126.894531 104.113281 C 127.0625 104.046875 127.226562 103.980469 127.394531 103.90625 C 134.519531 105.242188 141.710938 105.9375 148.960938 105.992188 L 149.101562 105.992188 C 143.445312 115.875 127.746094 145.710938 134.679688 161.191406 C 136.914062 166.167969 141.179688 169.269531 147.347656 170.363281 C 149.796875 170.8125 152.273438 171.039062 154.765625 171.046875 C 161.550781 171.046875 167.386719 169.203125 171.648438 165.617188 C 176.273438 161.742188 178.722656 156.027344 178.722656 149.097656 C 178.722656 135.710938 162.957031 113.699219 156.808594 105.621094 Z M 153.191406 96.644531 C 153.449219 95.824219 154.273438 95.148438 155.628906 94.652344 C 154.878906 95.949219 153.710938 97.566406 153.21875 98.269531 C 153.207031 98.285156 153.195312 98.300781 153.1875 98.316406 C 153.039062 97.757812 153.039062 97.203125 153.1875 96.644531 Z M 76.277344 233.402344 L 83.148438 227.394531 L 83.148438 237.410156 Z M 119.84375 182.421875 C 117.128906 197.421875 110.03125 207.382812 98.199219 212.652344 C 102.765625 207.089844 106.515625 199.375 108.175781 188.675781 C 108.214844 188.402344 108.199219 188.128906 108.128906 187.863281 C 108.0625 187.59375 107.945312 187.351562 107.78125 187.128906 C 107.613281 186.90625 107.414062 186.722656 107.175781 186.582031 C 106.941406 186.4375 106.6875 186.347656 106.414062 186.304688 C 106.140625 186.261719 105.867188 186.273438 105.601562 186.335938 C 105.332031 186.402344 105.085938 186.515625 104.859375 186.675781 C 104.636719 186.839844 104.453125 187.035156 104.304688 187.273438 C 104.160156 187.507812 104.0625 187.761719 104.015625 188.03125 C 102.09375 200.433594 97.105469 209.667969 89.144531 215.601562 C 88.785156 215.738281 88.484375 215.957031 88.242188 216.253906 C 85.804688 217.945312 83.203125 219.3125 80.433594 220.363281 C 77.164062 221.59375 73.800781 222.414062 70.335938 222.828125 C 78.238281 217.457031 84.109375 208.546875 87.832031 196.238281 C 87.921875 195.96875 87.953125 195.695312 87.929688 195.414062 C 87.90625 195.128906 87.832031 194.863281 87.699219 194.613281 C 87.570312 194.363281 87.394531 194.144531 87.175781 193.964844 C 86.957031 193.785156 86.714844 193.652344 86.441406 193.570312 C 86.171875 193.488281 85.894531 193.464844 85.613281 193.492188 C 85.332031 193.523438 85.066406 193.605469 84.820312 193.742188 C 84.570312 193.878906 84.359375 194.058594 84.183594 194.28125 C 84.007812 194.503906 83.882812 194.75 83.808594 195.023438 C 79.699219 208.59375 72.894531 217.609375 63.574219 221.8125 C 55.253906 225.558594 46.5 224.722656 40.617188 223.378906 C 52.351562 219.601562 63.035156 208.84375 72.425781 191.324219 C 72.554688 191.082031 72.636719 190.816406 72.664062 190.539062 C 72.691406 190.261719 72.664062 189.992188 72.582031 189.722656 C 72.503906 189.457031 72.375 189.214844 72.195312 189 C 72.019531 188.785156 71.808594 188.609375 71.5625 188.476562 C 71.316406 188.347656 71.054688 188.265625 70.777344 188.238281 C 70.5 188.210938 70.226562 188.238281 69.960938 188.320312 C 69.691406 188.398438 69.453125 188.527344 69.234375 188.707031 C 69.019531 188.882812 68.847656 189.09375 68.714844 189.339844 C 59.078125 207.324219 48.230469 217.683594 36.480469 220.132812 C 33.644531 220.707031 30.792969 220.8125 27.921875 220.449219 C 25.050781 220.085938 22.316406 219.273438 19.710938 218.015625 C 26.046875 215.273438 37.957031 207.765625 51.691406 187.585938 C 63.195312 170.671875 77.671875 163.289062 90.316406 158.296875 C 91.59375 157.796875 92.886719 157.339844 93.871094 156.996094 C 97.941406 155.578125 111.164062 149.488281 111.164062 130.574219 C 111.164062 123.082031 110.4375 115.960938 109.808594 109.679688 C 108.421875 96.15625 107.429688 86.386719 114.109375 82.945312 C 119.316406 80.265625 124.832031 81.964844 127.988281 84.84375 C 130.910156 87.507812 131.863281 91.0625 130.539062 94.34375 C 129.316406 97.375 127.601562 99.320312 125.449219 100.152344 C 122.226562 101.386719 118.867188 99.761719 118.839844 99.753906 C 118.589844 99.636719 118.328125 99.570312 118.054688 99.554688 C 117.78125 99.539062 117.511719 99.574219 117.253906 99.664062 C 116.992188 99.75 116.757812 99.886719 116.550781 100.066406 C 116.34375 100.246094 116.179688 100.460938 116.054688 100.707031 C 115.929688 100.949219 115.859375 101.210938 115.835938 101.484375 C 115.8125 101.757812 115.84375 102.027344 115.925781 102.289062 C 116.011719 102.550781 116.140625 102.789062 116.316406 103 C 116.492188 103.210938 116.699219 103.378906 116.941406 103.507812 C 117.628906 103.832031 118.335938 104.09375 119.070312 104.292969 C 117.199219 108.261719 115.246094 116.769531 117.828125 134.089844 L 118.054688 135.609375 C 120.011719 148.710938 122.699219 166.640625 119.851562 182.421875 Z M 131.894531 100.386719 C 132.90625 99.097656 133.714844 97.691406 134.328125 96.171875 C 138.894531 98.519531 143.644531 100.386719 148.589844 101.769531 C 142.992188 101.71875 137.425781 101.257812 131.894531 100.386719 Z M 168.945312 162.402344 C 164.238281 166.351562 156.636719 167.746094 148.101562 166.226562 C 143.304688 165.375 140.171875 163.167969 138.519531 159.480469 C 135.554688 152.863281 137.339844 141.425781 143.667969 126.402344 C 146.421875 119.957031 149.542969 113.695312 153.03125 107.617188 C 158.582031 114.882812 174.535156 136.8125 174.535156 149.105469 C 174.535156 154.832031 172.640625 159.308594 168.945312 162.402344 Z M 168.945312 162.402344 " fill-opacity="1" fill-rule="nonzero"/></g><path fill="rgb(33.729553%, 23.919678%, 25.489807%)" d="M 156.949219 141.324219 L 156.84375 141.277344 L 156.84375 134.296875 C 158.242188 134.367188 159.546875 134.757812 160.753906 135.472656 L 161.636719 133.148438 C 160.21875 132.335938 158.691406 131.925781 157.054688 131.914062 L 157.054688 128.519531 L 154.871094 128.519531 L 154.871094 132.074219 C 151.625 132.605469 149.550781 134.828125 149.550781 137.753906 C 149.550781 140.679688 151.566406 142.277344 154.871094 143.636719 L 154.871094 151.472656 C 153.132812 151.414062 151.535156 150.914062 150.078125 149.96875 L 149.226562 152.332031 C 150.464844 153.214844 152.582031 153.847656 154.621094 153.882812 L 154.621094 157.445312 L 156.84375 157.445312 L 156.84375 153.765625 C 160.460938 153.167969 162.410156 150.5625 162.410156 147.773438 C 162.410156 144.640625 160.578125 142.808594 156.949219 141.324219 Z M 152.582031 137.304688 C 152.582031 136.972656 152.636719 136.652344 152.75 136.339844 C 152.859375 136.027344 153.019531 135.742188 153.226562 135.484375 C 153.433594 135.226562 153.679688 135.007812 153.960938 134.835938 C 154.242188 134.660156 154.546875 134.535156 154.871094 134.464844 L 154.871094 140.347656 C 153.273438 139.503906 152.582031 138.648438 152.582031 137.304688 Z M 156.84375 151.222656 L 156.84375 144.523438 C 158.484375 145.425781 159.34375 146.492188 159.34375 148.023438 C 159.34375 149.558594 158.386719 150.726562 156.84375 151.222656 Z M 156.84375 151.222656 " fill-opacity="1" fill-rule="nonzero"/><path fill="rgb(33.729553%, 23.919678%, 25.489807%)" d="M 82.050781 284.292969 C 82.042969 284.011719 81.980469 283.746094 81.867188 283.492188 C 81.75 283.234375 81.589844 283.015625 81.386719 282.824219 C 81.183594 282.632812 80.949219 282.488281 80.6875 282.390625 C 80.425781 282.292969 80.15625 282.25 79.875 282.261719 C 75.699219 282.363281 71.546875 282.75 67.425781 283.425781 C 64.019531 284.054688 60.859375 284.988281 60.859375 287.535156 C 60.859375 289.996094 63.753906 290.914062 66.882812 291.539062 C 67.019531 291.566406 67.15625 291.578125 67.296875 291.578125 C 67.539062 291.582031 67.769531 291.542969 67.996094 291.464844 C 68.222656 291.386719 68.429688 291.273438 68.617188 291.121094 C 68.804688 290.972656 68.964844 290.796875 69.089844 290.59375 C 69.21875 290.390625 69.308594 290.171875 69.363281 289.9375 C 69.414062 289.707031 69.425781 289.46875 69.398438 289.230469 C 69.371094 288.992188 69.304688 288.765625 69.199219 288.550781 C 69.09375 288.335938 68.957031 288.144531 68.785156 287.976562 C 68.613281 287.808594 68.421875 287.671875 68.203125 287.570312 C 72.121094 286.921875 76.0625 286.554688 80.035156 286.46875 C 80.3125 286.457031 80.578125 286.390625 80.828125 286.277344 C 81.082031 286.160156 81.304688 286 81.492188 285.796875 C 81.679688 285.59375 81.824219 285.359375 81.921875 285.097656 C 82.019531 284.839844 82.0625 284.570312 82.050781 284.292969 Z M 82.050781 284.292969 " fill-opacity="1" fill-rule="nonzero"/><path fill="rgb(33.729553%, 23.919678%, 25.489807%)" d="M 97.125 282.703125 C 96.847656 282.675781 96.574219 282.703125 96.308594 282.785156 C 96.042969 282.867188 95.800781 282.996094 95.585938 283.175781 C 95.371094 283.351562 95.195312 283.566406 95.066406 283.8125 C 94.933594 284.058594 94.855469 284.320312 94.832031 284.597656 C 94.804688 284.875 94.832031 285.148438 94.914062 285.417969 C 94.996094 285.683594 95.125 285.925781 95.304688 286.140625 C 95.480469 286.355469 95.695312 286.527344 95.941406 286.65625 C 96.1875 286.789062 96.449219 286.867188 96.726562 286.894531 C 98.75 287.082031 100.347656 287.308594 101.613281 287.53125 C 97.613281 288.179688 93.585938 288.542969 89.53125 288.617188 C 89.25 288.621094 88.984375 288.679688 88.730469 288.789062 C 88.472656 288.902344 88.25 289.054688 88.054688 289.257812 C 87.859375 289.457031 87.710938 289.6875 87.609375 289.945312 C 87.507812 290.203125 87.457031 290.472656 87.460938 290.75 C 87.464844 291.03125 87.523438 291.296875 87.632812 291.554688 C 87.742188 291.808594 87.898438 292.035156 88.097656 292.230469 C 88.300781 292.421875 88.527344 292.570312 88.789062 292.675781 C 89.046875 292.777344 89.316406 292.828125 89.59375 292.824219 L 89.660156 292.824219 C 93.941406 292.734375 98.191406 292.347656 102.414062 291.664062 C 105.898438 291.035156 109.121094 290.101562 109.121094 287.535156 C 109.121094 285.324219 107.085938 283.652344 97.125 282.703125 Z M 97.125 282.703125 " fill-opacity="1" fill-rule="nonzero"/><g clip-path="url(#id3)"><path fill="rgb(33.729553%, 23.919678%, 25.489807%)" d="M 97.265625 294.5625 C 93.285156 294.78125 89.15625 294.894531 84.992188 294.894531 C 73.054688 294.894531 61.738281 293.992188 53.132812 292.320312 C 43.332031 290.414062 40.582031 288.226562 40.359375 287.535156 C 40.589844 286.84375 43.46875 284.554688 53.78125 282.640625 C 54.0625 282.597656 54.324219 282.5 54.566406 282.351562 C 54.808594 282.203125 55.011719 282.011719 55.179688 281.78125 C 55.34375 281.546875 55.457031 281.292969 55.519531 281.015625 C 55.582031 280.738281 55.585938 280.457031 55.535156 280.175781 C 55.484375 279.898438 55.378906 279.636719 55.222656 279.398438 C 55.0625 279.164062 54.867188 278.964844 54.628906 278.808594 C 54.390625 278.648438 54.132812 278.542969 53.851562 278.492188 C 53.574219 278.4375 53.292969 278.445312 53.015625 278.503906 C 41.664062 280.609375 36.148438 283.5625 36.148438 287.554688 C 36.148438 291.34375 41.179688 294.203125 51.53125 296.292969 C 60.492188 298.105469 72.378906 299.105469 85.011719 299.105469 C 89.25 299.105469 93.457031 298.992188 97.519531 298.765625 C 97.800781 298.75 98.0625 298.679688 98.316406 298.558594 C 98.566406 298.4375 98.785156 298.273438 98.972656 298.066406 C 99.15625 297.859375 99.296875 297.621094 99.390625 297.359375 C 99.480469 297.09375 99.519531 296.824219 99.503906 296.546875 C 99.488281 296.265625 99.421875 296 99.300781 295.75 C 99.179688 295.5 99.011719 295.28125 98.804688 295.09375 C 98.597656 294.90625 98.363281 294.769531 98.097656 294.675781 C 97.835938 294.585938 97.5625 294.546875 97.285156 294.5625 Z M 97.265625 294.5625 " fill-opacity="1" fill-rule="nonzero"/></g><path fill="rgb(100%, 100%, 100%)" d="M 124.859375 88.496094 C 124.859375 88.71875 124.839844 88.929688 124.792969 89.136719 C 124.75 89.339844 124.6875 89.519531 124.605469 89.675781 C 124.523438 89.832031 124.429688 89.953125 124.320312 90.035156 C 124.214844 90.121094 124.101562 90.164062 123.988281 90.164062 C 123.871094 90.164062 123.761719 90.121094 123.652344 90.035156 C 123.546875 89.953125 123.453125 89.832031 123.371094 89.675781 C 123.289062 89.519531 123.226562 89.339844 123.179688 89.136719 C 123.136719 88.929688 123.113281 88.71875 123.113281 88.496094 C 123.113281 88.277344 123.136719 88.066406 123.179688 87.859375 C 123.226562 87.65625 123.289062 87.476562 123.371094 87.320312 C 123.453125 87.164062 123.546875 87.042969 123.652344 86.960938 C 123.761719 86.875 123.871094 86.832031 123.988281 86.832031 C 124.101562 86.832031 124.214844 86.875 124.320312 86.960938 C 124.429688 87.042969 124.523438 87.164062 124.605469 87.320312 C 124.6875 87.476562 124.75 87.65625 124.792969 87.859375 C 124.839844 88.066406 124.859375 88.277344 124.859375 88.496094 Z M 124.859375 88.496094 " fill-opacity="1" fill-rule="nonzero"/><g fill="rgb(35.688782%, 81.568909%, 59.609985%)" fill-opacity="1"><g transform="translate(160.950169, 221.789677)"><g><path d="M 4.578125 0 L 4.578125 -33.3125 L 12.953125 -33.3125 C 14.242188 -33.28125 15.453125 -33.066406 16.578125 -32.671875 C 17.703125 -32.273438 18.71875 -31.738281 19.625 -31.0625 C 20.539062 -30.382812 21.351562 -29.582031 22.0625 -28.65625 C 22.769531 -27.738281 23.367188 -26.742188 23.859375 -25.671875 C 24.347656 -24.609375 24.722656 -23.476562 24.984375 -22.28125 C 25.242188 -21.09375 25.378906 -19.894531 25.390625 -18.6875 L 25.390625 -14.625 C 25.378906 -13.414062 25.242188 -12.21875 24.984375 -11.03125 C 24.722656 -9.84375 24.347656 -8.710938 23.859375 -7.640625 C 23.367188 -6.578125 22.769531 -5.582031 22.0625 -4.65625 C 21.351562 -3.726562 20.539062 -2.925781 19.625 -2.25 C 18.71875 -1.570312 17.703125 -1.035156 16.578125 -0.640625 C 15.453125 -0.242188 14.242188 -0.03125 12.953125 0 Z M 5.765625 -32.078125 L 5.765625 -1.234375 L 12.953125 -1.234375 C 14.140625 -1.265625 15.234375 -1.460938 16.234375 -1.828125 C 17.242188 -2.191406 18.160156 -2.6875 18.984375 -3.3125 C 19.804688 -3.9375 20.535156 -4.671875 21.171875 -5.515625 C 21.816406 -6.367188 22.359375 -7.285156 22.796875 -8.265625 C 23.234375 -9.253906 23.566406 -10.285156 23.796875 -11.359375 C 24.023438 -12.429688 24.144531 -13.519531 24.15625 -14.625 L 24.15625 -18.765625 C 24.125 -20.390625 23.859375 -21.988281 23.359375 -23.5625 C 22.859375 -25.132812 22.128906 -26.546875 21.171875 -27.796875 C 20.222656 -29.046875 19.054688 -30.0625 17.671875 -30.84375 C 16.296875 -31.625 14.722656 -32.035156 12.953125 -32.078125 Z M 5.765625 -32.078125 "/></g></g></g><g fill="rgb(35.688782%, 81.568909%, 59.609985%)" fill-opacity="1"><g transform="translate(189.07215, 221.789677)"><g><path d="M 5.46875 -24.75 L 15.78125 -24.75 L 15.78125 -1.234375 L 24.578125 -1.234375 L 24.578125 0 L 5.46875 0 L 5.46875 -1.234375 L 14.546875 -1.234375 L 14.546875 -23.515625 L 5.46875 -23.515625 Z M 13.5 -31.796875 C 13.5 -32.015625 13.519531 -32.222656 13.5625 -32.421875 C 13.613281 -32.628906 13.695312 -32.8125 13.8125 -32.96875 C 13.9375 -33.132812 14.101562 -33.265625 14.3125 -33.359375 C 14.519531 -33.453125 14.78125 -33.5 15.09375 -33.5 C 15.40625 -33.5 15.660156 -33.453125 15.859375 -33.359375 C 16.066406 -33.265625 16.234375 -33.132812 16.359375 -32.96875 C 16.492188 -32.8125 16.585938 -32.628906 16.640625 -32.421875 C 16.691406 -32.222656 16.71875 -32.015625 16.71875 -31.796875 C 16.71875 -31.390625 16.597656 -31.015625 16.359375 -30.671875 C 16.128906 -30.335938 15.707031 -30.171875 15.09375 -30.171875 C 14.46875 -30.171875 14.046875 -30.335938 13.828125 -30.671875 C 13.609375 -31.015625 13.5 -31.390625 13.5 -31.796875 Z M 13.5 -31.796875 "/></g></g></g><g fill="rgb(35.688782%, 81.568909%, 59.609985%)" fill-opacity="1"><g transform="translate(217.19413, 221.789677)"><g><path d="M 6.109375 -18.8125 C 6.503906 -19.726562 7.003906 -20.578125 7.609375 -21.359375 C 8.210938 -22.140625 8.90625 -22.8125 9.6875 -23.375 C 10.476562 -23.945312 11.34375 -24.394531 12.28125 -24.71875 C 13.226562 -25.050781 14.242188 -25.21875 15.328125 -25.21875 C 16.742188 -25.21875 17.96875 -24.988281 19 -24.53125 C 20.03125 -24.070312 20.878906 -23.429688 21.546875 -22.609375 C 22.222656 -21.796875 22.71875 -20.820312 23.03125 -19.6875 C 23.351562 -18.5625 23.523438 -17.335938 23.546875 -16.015625 L 23.5625 0 L 22.3125 0 L 22.3125 -16.015625 C 22.289062 -17.171875 22.144531 -18.238281 21.875 -19.21875 C 21.613281 -20.207031 21.203125 -21.054688 20.640625 -21.765625 C 20.078125 -22.472656 19.351562 -23.023438 18.46875 -23.421875 C 17.582031 -23.828125 16.515625 -24.019531 15.265625 -24 C 14.148438 -23.988281 13.085938 -23.769531 12.078125 -23.34375 C 11.078125 -22.914062 10.171875 -22.34375 9.359375 -21.625 C 8.546875 -20.90625 7.859375 -20.0625 7.296875 -19.09375 C 6.734375 -18.132812 6.335938 -17.125 6.109375 -16.0625 L 6.109375 0 L 4.84375 0 L 4.84375 -24.75 L 6.109375 -24.75 Z M 6.109375 -18.8125 "/></g></g></g><g fill="rgb(35.688782%, 81.568909%, 59.609985%)" fill-opacity="1"><g transform="translate(245.316111, 221.789677)"><g><path d="M 4.578125 0 L 4.578125 -33.3125 L 12.953125 -33.3125 C 14.242188 -33.28125 15.453125 -33.066406 16.578125 -32.671875 C 17.703125 -32.273438 18.71875 -31.738281 19.625 -31.0625 C 20.539062 -30.382812 21.351562 -29.582031 22.0625 -28.65625 C 22.769531 -27.738281 23.367188 -26.742188 23.859375 -25.671875 C 24.347656 -24.609375 24.722656 -23.476562 24.984375 -22.28125 C 25.242188 -21.09375 25.378906 -19.894531 25.390625 -18.6875 L 25.390625 -14.625 C 25.378906 -13.414062 25.242188 -12.21875 24.984375 -11.03125 C 24.722656 -9.84375 24.347656 -8.710938 23.859375 -7.640625 C 23.367188 -6.578125 22.769531 -5.582031 22.0625 -4.65625 C 21.351562 -3.726562 20.539062 -2.925781 19.625 -2.25 C 18.71875 -1.570312 17.703125 -1.035156 16.578125 -0.640625 C 15.453125 -0.242188 14.242188 -0.03125 12.953125 0 Z M 5.765625 -32.078125 L 5.765625 -1.234375 L 12.953125 -1.234375 C 14.140625 -1.265625 15.234375 -1.460938 16.234375 -1.828125 C 17.242188 -2.191406 18.160156 -2.6875 18.984375 -3.3125 C 19.804688 -3.9375 20.535156 -4.671875 21.171875 -5.515625 C 21.816406 -6.367188 22.359375 -7.285156 22.796875 -8.265625 C 23.234375 -9.253906 23.566406 -10.285156 23.796875 -11.359375 C 24.023438 -12.429688 24.144531 -13.519531 24.15625 -14.625 L 24.15625 -18.765625 C 24.125 -20.390625 23.859375 -21.988281 23.359375 -23.5625 C 22.859375 -25.132812 22.128906 -26.546875 21.171875 -27.796875 C 20.222656 -29.046875 19.054688 -30.0625 17.671875 -30.84375 C 16.296875 -31.625 14.722656 -32.035156 12.953125 -32.078125 Z M 5.765625 -32.078125 "/></g></g></g><g fill="rgb(35.688782%, 81.568909%, 59.609985%)" fill-opacity="1"><g transform="translate(273.438091, 221.789677)"><g><path d="M 5.46875 -24.75 L 15.78125 -24.75 L 15.78125 -1.234375 L 24.578125 -1.234375 L 24.578125 0 L 5.46875 0 L 5.46875 -1.234375 L 14.546875 -1.234375 L 14.546875 -23.515625 L 5.46875 -23.515625 Z M 13.5 -31.796875 C 13.5 -32.015625 13.519531 -32.222656 13.5625 -32.421875 C 13.613281 -32.628906 13.695312 -32.8125 13.8125 -32.96875 C 13.9375 -33.132812 14.101562 -33.265625 14.3125 -33.359375 C 14.519531 -33.453125 14.78125 -33.5 15.09375 -33.5 C 15.40625 -33.5 15.660156 -33.453125 15.859375 -33.359375 C 16.066406 -33.265625 16.234375 -33.132812 16.359375 -32.96875 C 16.492188 -32.8125 16.585938 -32.628906 16.640625 -32.421875 C 16.691406 -32.222656 16.71875 -32.015625 16.71875 -31.796875 C 16.71875 -31.390625 16.597656 -31.015625 16.359375 -30.671875 C 16.128906 -30.335938 15.707031 -30.171875 15.09375 -30.171875 C 14.46875 -30.171875 14.046875 -30.335938 13.828125 -30.671875 C 13.609375 -31.015625 13.5 -31.390625 13.5 -31.796875 Z M 13.5 -31.796875 "/></g></g></g><g fill="rgb(35.688782%, 81.568909%, 59.609985%)" fill-opacity="1"><g transform="translate(301.560072, 221.789677)"><g><path d="M 6.109375 -18.8125 C 6.503906 -19.726562 7.003906 -20.578125 7.609375 -21.359375 C 8.210938 -22.140625 8.90625 -22.8125 9.6875 -23.375 C 10.476562 -23.945312 11.34375 -24.394531 12.28125 -24.71875 C 13.226562 -25.050781 14.242188 -25.21875 15.328125 -25.21875 C 16.742188 -25.21875 17.96875 -24.988281 19 -24.53125 C 20.03125 -24.070312 20.878906 -23.429688 21.546875 -22.609375 C 22.222656 -21.796875 22.71875 -20.820312 23.03125 -19.6875 C 23.351562 -18.5625 23.523438 -17.335938 23.546875 -16.015625 L 23.5625 0 L 22.3125 0 L 22.3125 -16.015625 C 22.289062 -17.171875 22.144531 -18.238281 21.875 -19.21875 C 21.613281 -20.207031 21.203125 -21.054688 20.640625 -21.765625 C 20.078125 -22.472656 19.351562 -23.023438 18.46875 -23.421875 C 17.582031 -23.828125 16.515625 -24.019531 15.265625 -24 C 14.148438 -23.988281 13.085938 -23.769531 12.078125 -23.34375 C 11.078125 -22.914062 10.171875 -22.34375 9.359375 -21.625 C 8.546875 -20.90625 7.859375 -20.0625 7.296875 -19.09375 C 6.734375 -18.132812 6.335938 -17.125 6.109375 -16.0625 L 6.109375 0 L 4.84375 0 L 4.84375 -24.75 L 6.109375 -24.75 Z M 6.109375 -18.8125 "/></g></g></g></svg>