<svg xmlns="http://www.w3.org/2000/svg" xmlns:xlink="http://www.w3.org/1999/xlink" width="300" zoomAndPan="magnify" viewBox="0 0 224.87999 299.999988" height="400" preserveAspectRatio="xMidYMid meet" version="1.0"><defs><clipPath id="id1"><path d="M 0 2 L 223.378906 2 L 223.378906 294 L 0 294 Z M 0 2 " clip-rule="nonzero"/></clipPath><clipPath id="id2"><path d="M 31 272 L 117 272 L 117 299.917969 L 31 299.917969 Z M 31 272 " clip-rule="nonzero"/></clipPath></defs><path fill="rgb(97.648621%, 92.939758%, 19.60907%)" d="M 185.328125 35.285156 C 177.648438 33.34375 170.300781 30.53125 163.289062 26.847656 C 163.25 26.949219 163.222656 27.046875 163.179688 27.152344 C 162.242188 29.613281 160.90625 31.839844 159.171875 33.828125 C 167.925781 35.277344 176.734375 35.941406 185.605469 35.824219 C 185.507812 35.625 185.417969 35.453125 185.328125 35.285156 Z M 185.328125 35.285156 " fill-opacity="1" fill-rule="nonzero"/><path fill="rgb(100%, 93.328857%, 94.119263%)" d="M 155.5 12.050781 C 151.113281 8.050781 143.441406 5.675781 136.195312 9.410156 C 127.5625 13.851562 126.902344 24.359375 129.71875 43.054688 C 131.003906 51.59375 130.886719 60.59375 131.214844 71.078125 C 131.214844 71.648438 131.214844 73.578125 131.214844 74.113281 C 131.542969 92.394531 122.113281 103.851562 104.480469 109.863281 C 88.898438 115.171875 66.878906 126.578125 52.28125 149.921875 C 34.101562 178.96875 17.078125 188.300781 8.675781 191.265625 C 10.488281 192.203125 12.371094 192.984375 14.316406 193.601562 C 16.261719 194.222656 18.242188 194.671875 20.265625 194.957031 C 22.285156 195.238281 24.316406 195.351562 26.359375 195.292969 C 28.398438 195.230469 30.417969 195 32.421875 194.601562 C 48.402344 191.273438 63.101562 177.3125 76.121094 152.972656 C 76.261719 152.714844 76.445312 152.492188 76.671875 152.308594 C 76.898438 152.121094 77.152344 151.988281 77.433594 151.902344 C 77.714844 151.820312 78 151.789062 78.292969 151.820312 C 78.585938 151.851562 78.859375 151.933594 79.117188 152.074219 C 79.375 152.210938 79.597656 152.394531 79.785156 152.621094 C 79.96875 152.847656 80.105469 153.101562 80.1875 153.382812 C 80.273438 153.664062 80.300781 153.949219 80.269531 154.242188 C 80.242188 154.535156 80.15625 154.808594 80.019531 155.066406 C 66.933594 179.484375 51.984375 194.046875 35.554688 198.398438 C 43.40625 200.5 56.503906 202.394531 68.898438 196.808594 C 81.574219 191.089844 90.824219 178.875 96.382812 160.480469 C 96.46875 160.199219 96.601562 159.945312 96.789062 159.71875 C 96.976562 159.492188 97.199219 159.308594 97.457031 159.167969 C 97.71875 159.027344 97.992188 158.945312 98.285156 158.914062 C 98.578125 158.886719 98.867188 158.914062 99.148438 159 C 99.429688 159.082031 99.683594 159.21875 99.910156 159.40625 C 100.140625 159.589844 100.324219 159.8125 100.460938 160.074219 C 100.601562 160.332031 100.683594 160.609375 100.714844 160.902344 C 100.746094 161.195312 100.714844 161.480469 100.632812 161.761719 C 95.34375 179.230469 86.8125 191.558594 75.234375 198.476562 C 80.808594 198.050781 86.214844 196.863281 91.453125 194.914062 C 95.28125 193.46875 98.871094 191.570312 102.222656 189.226562 C 102.492188 188.871094 102.84375 188.621094 103.265625 188.476562 C 114.125 180.421875 120.929688 167.882812 123.539062 151.027344 C 123.582031 150.734375 123.679688 150.464844 123.832031 150.214844 C 123.984375 149.964844 124.179688 149.753906 124.417969 149.578125 C 124.652344 149.40625 124.914062 149.285156 125.199219 149.214844 C 125.484375 149.144531 125.769531 149.132812 126.058594 149.175781 C 126.351562 149.222656 126.621094 149.320312 126.871094 149.472656 C 127.121094 149.625 127.332031 149.820312 127.507812 150.054688 C 127.679688 150.292969 127.800781 150.554688 127.871094 150.835938 C 127.941406 151.121094 127.953125 151.410156 127.910156 151.699219 C 125.480469 167.230469 119.78125 178.023438 112.964844 185.527344 C 130.480469 178.683594 140.929688 164.890625 144.769531 143.519531 C 148.613281 122.144531 144.996094 98.136719 142.34375 80.527344 L 142.039062 78.488281 C 138.398438 54.210938 141.429688 43.039062 143.957031 38.199219 C 142.769531 37.914062 141.621094 37.511719 140.519531 36.984375 C 140.257812 36.851562 140.035156 36.675781 139.84375 36.453125 C 139.652344 36.230469 139.507812 35.980469 139.417969 35.699219 C 139.328125 35.421875 139.292969 35.136719 139.3125 34.84375 C 139.335938 34.550781 139.410156 34.277344 139.542969 34.015625 C 139.675781 33.75 139.851562 33.523438 140.074219 33.332031 C 140.296875 33.140625 140.546875 33 140.824219 32.910156 C 141.101562 32.816406 141.386719 32.78125 141.679688 32.804688 C 141.972656 32.824219 142.25 32.902344 142.511719 33.03125 C 142.589844 33.070312 147.300781 35.34375 151.871094 33.601562 C 154.90625 32.4375 157.335938 29.699219 159.050781 25.457031 C 160.957031 20.824219 159.617188 15.800781 155.5 12.050781 Z M 155.5 12.050781 " fill-opacity="1" fill-rule="nonzero"/><path fill="rgb(36.859131%, 82.749939%, 40.779114%)" d="M 168.667969 112.878906 C 170.972656 118.023438 175.34375 121.101562 181.96875 122.28125 C 193.605469 124.351562 203.980469 122.433594 210.4375 117.019531 C 215.535156 112.769531 218.121094 106.582031 218.121094 98.710938 C 218.121094 81.605469 195.523438 50.925781 188.621094 41.960938 C 182.285156 52.886719 160.070312 93.679688 168.667969 112.878906 Z M 168.667969 112.878906 " fill-opacity="1" fill-rule="nonzero"/><path fill="rgb(22.349548%, 70.979309%, 29.019165%)" d="M 188.902344 31.574219 L 189.4375 30.835938 C 190.292969 29.65625 192.5625 26.511719 193.394531 24.648438 C 193.101562 24.714844 192.746094 24.820312 192.3125 24.964844 C 190.09375 25.710938 188.75 26.785156 188.320312 28.15625 C 188.039062 29.289062 188.105469 30.402344 188.519531 31.492188 Z M 188.902344 31.574219 " fill-opacity="1" fill-rule="nonzero"/><path fill="rgb(58.039856%, 100%, 59.999084%)" d="M 210.4375 117.019531 C 215.535156 112.769531 218.121094 106.582031 218.121094 98.710938 C 218.121094 81.605469 195.523438 50.925781 188.621094 41.960938 C 188.621094 41.960938 223.3125 95.222656 210.4375 117.019531 Z M 210.4375 117.019531 " fill-opacity="1" fill-rule="nonzero"/><path fill="rgb(19.219971%, 68.629456%, 21.958923%)" d="M 174.316406 71.09375 C 168.355469 85.929688 164.035156 102.546875 168.667969 112.894531 C 170.972656 118.042969 175.34375 121.121094 181.96875 122.296875 C 193.605469 124.367188 203.980469 122.449219 210.4375 117.035156 C 157.308594 131.125 174.1875 71.527344 174.316406 71.09375 Z M 174.316406 71.09375 " fill-opacity="1" fill-rule="nonzero"/><path fill="rgb(19.219971%, 68.629456%, 21.958923%)" d="M 181.304688 64.679688 C 180.828125 65.285156 182.46875 87.191406 201.082031 105.03125 Z M 181.304688 64.679688 " fill-opacity="1" fill-rule="nonzero"/><path fill="rgb(91.758728%, 70.979309%, 73.728943%)" d="M 112.976562 185.527344 C 130.492188 178.683594 140.941406 164.890625 144.78125 143.519531 C 148.625 122.144531 145.007812 98.136719 142.355469 80.527344 C 142.355469 80.527344 150.621094 148.695312 120.691406 169.390625 " fill-opacity="1" fill-rule="nonzero"/><path fill="rgb(91.758728%, 70.979309%, 73.728943%)" d="M 123.550781 151.027344 C 123.550781 151.027344 109.917969 185.472656 84.296875 188.105469 L 75.230469 198.476562 C 75.230469 198.476562 89.261719 197.46875 100.722656 192.832031 C 112.183594 188.195312 124.714844 162.589844 123.550781 151.027344 Z M 123.550781 151.027344 " fill-opacity="1" fill-rule="nonzero"/><path fill="rgb(91.758728%, 70.979309%, 73.728943%)" d="M 96.390625 160.480469 C 96.390625 160.480469 80.238281 190.367188 51.621094 190.558594 L 33.507812 198.476562 C 33.507812 198.476562 54.722656 210.816406 72.480469 197.519531 C 90.242188 184.21875 99.382812 169.421875 96.390625 160.480469 Z M 96.390625 160.480469 " fill-opacity="1" fill-rule="nonzero"/><path fill="rgb(91.758728%, 70.979309%, 73.728943%)" d="M 76.121094 152.972656 C 76.121094 152.972656 50.925781 187.632812 19.917969 185.527344 L 7.066406 190.558594 C 7.066406 190.558594 23.6875 203.910156 46.277344 191.425781 C 68.867188 178.941406 78.078125 154.019531 78.078125 154.019531 " fill-opacity="1" fill-rule="nonzero"/><path fill="rgb(91.758728%, 70.979309%, 73.728943%)" d="M 159.171875 19.636719 C 159.171875 19.636719 159.441406 30.652344 140.75 32.988281 C 140.75 32.972656 161.097656 43.175781 159.171875 19.636719 Z M 159.171875 19.636719 " fill-opacity="1" fill-rule="nonzero"/><path fill="rgb(91.758728%, 70.979309%, 73.728943%)" d="M 140.546875 37.007812 L 141.144531 47.652344 L 146.453125 37.007812 Z M 140.546875 37.007812 " fill-opacity="1" fill-rule="nonzero"/><path fill="rgb(33.729553%, 23.919678%, 25.489807%)" d="M 151.945312 18.664062 C 151.945312 19.03125 151.921875 19.390625 151.871094 19.75 C 151.824219 20.109375 151.75 20.457031 151.65625 20.792969 C 151.5625 21.128906 151.445312 21.449219 151.304688 21.753906 C 151.167969 22.058594 151.011719 22.339844 150.835938 22.597656 C 150.660156 22.855469 150.46875 23.085938 150.261719 23.289062 C 150.054688 23.492188 149.835938 23.660156 149.605469 23.800781 C 149.375 23.941406 149.140625 24.046875 148.894531 24.117188 C 148.652344 24.1875 148.40625 24.226562 148.15625 24.226562 C 147.90625 24.226562 147.660156 24.1875 147.417969 24.117188 C 147.175781 24.046875 146.9375 23.941406 146.707031 23.800781 C 146.476562 23.660156 146.257812 23.492188 146.050781 23.289062 C 145.847656 23.085938 145.65625 22.855469 145.480469 22.597656 C 145.304688 22.339844 145.144531 22.058594 145.007812 21.753906 C 144.871094 21.449219 144.753906 21.128906 144.65625 20.792969 C 144.5625 20.457031 144.492188 20.109375 144.441406 19.75 C 144.394531 19.390625 144.371094 19.03125 144.371094 18.664062 C 144.371094 18.300781 144.394531 17.9375 144.441406 17.582031 C 144.492188 17.222656 144.5625 16.875 144.65625 16.539062 C 144.753906 16.199219 144.871094 15.878906 145.007812 15.578125 C 145.144531 15.273438 145.304688 14.992188 145.480469 14.734375 C 145.65625 14.476562 145.847656 14.246094 146.050781 14.042969 C 146.257812 13.839844 146.476562 13.667969 146.707031 13.527344 C 146.9375 13.390625 147.175781 13.285156 147.417969 13.210938 C 147.660156 13.140625 147.90625 13.105469 148.15625 13.105469 C 148.40625 13.105469 148.652344 13.140625 148.894531 13.210938 C 149.140625 13.285156 149.375 13.390625 149.605469 13.527344 C 149.835938 13.667969 150.054688 13.839844 150.261719 14.042969 C 150.46875 14.246094 150.660156 14.476562 150.835938 14.734375 C 151.011719 14.992188 151.167969 15.273438 151.304688 15.578125 C 151.445312 15.878906 151.5625 16.199219 151.65625 16.539062 C 151.75 16.875 151.824219 17.222656 151.871094 17.582031 C 151.921875 17.9375 151.945312 18.300781 151.945312 18.664062 Z M 151.945312 18.664062 " fill-opacity="1" fill-rule="nonzero"/><g clip-path="url(#id1)"><path fill="rgb(33.729553%, 23.919678%, 25.489807%)" d="M 193.765625 40.375 C 199.804688 39.769531 202.929688 38.792969 203.21875 38.699219 C 203.53125 38.601562 203.816406 38.453125 204.074219 38.253906 C 204.332031 38.058594 204.550781 37.824219 204.726562 37.550781 C 204.90625 37.277344 205.03125 36.980469 205.105469 36.664062 C 205.179688 36.347656 205.203125 36.027344 205.164062 35.703125 C 205.128906 35.378906 205.039062 35.070312 204.898438 34.777344 C 204.757812 34.484375 204.570312 34.226562 204.335938 33.996094 C 204.101562 33.769531 203.839844 33.585938 203.542969 33.449219 C 203.246094 33.3125 202.9375 33.230469 202.613281 33.203125 C 199.863281 32.945312 197.222656 32.59375 194.722656 32.140625 C 197.941406 27.546875 199.960938 23.800781 197.988281 21.109375 C 196.015625 18.421875 192.039062 19.75 190.703125 20.1875 C 185.914062 21.796875 184.148438 24.605469 183.507812 26.675781 C 183.234375 27.566406 183.101562 28.476562 183.113281 29.410156 C 176.78125 27.566406 170.710938 25.089844 164.902344 21.972656 C 165.117188 17.019531 163.015625 12.105469 158.882812 8.328125 C 153.207031 3.152344 143.28125 0.078125 133.886719 4.9375 C 121.5 11.316406 123.082031 26.785156 125.085938 46.398438 C 125.929688 54.6875 126.90625 64.085938 126.90625 73.851562 C 126.90625 95.507812 112.042969 102.378906 107.484375 103.96875 C 106.113281 104.449219 104.308594 105.085938 102.507812 105.789062 C 85.777344 112.390625 64.480469 123.058594 48.085938 147.152344 C 22.976562 184.058594 2.855469 187.632812 2.679688 187.632812 C 2.121094 187.710938 1.632812 187.9375 1.207031 188.308594 C 0.785156 188.679688 0.5 189.140625 0.351562 189.683594 C 0.203125 190.226562 0.214844 190.765625 0.390625 191.300781 C 0.566406 191.839844 0.875 192.28125 1.3125 192.632812 C 4.792969 195.148438 8.574219 197.066406 12.660156 198.390625 C 16.746094 199.714844 20.933594 200.375 25.226562 200.378906 L 25.949219 200.378906 C 26.046875 200.441406 26.148438 200.496094 26.253906 200.542969 C 34.085938 203.847656 42.253906 205.523438 50.757812 205.566406 C 55.667969 205.589844 60.480469 204.914062 65.195312 203.535156 C 66.070312 203.621094 67.78125 203.746094 70.121094 203.746094 C 76.792969 203.75 83.324219 202.769531 89.707031 200.816406 L 79.066406 210.132812 C 78.722656 210.429688 78.46875 210.789062 78.300781 211.210938 C 78.132812 211.632812 78.070312 212.070312 78.113281 212.523438 C 78.160156 212.976562 78.304688 213.394531 78.546875 213.777344 C 78.792969 214.160156 79.113281 214.464844 79.503906 214.695312 L 94.9375 223.714844 L 94.9375 268.964844 C 93.085938 268.964844 91.234375 269.007812 89.414062 269.050781 C 89.039062 269.058594 88.683594 269.140625 88.339844 269.292969 C 87.996094 269.441406 87.699219 269.65625 87.441406 269.925781 C 87.179688 270.195312 86.984375 270.507812 86.851562 270.855469 C 86.714844 271.207031 86.652344 271.566406 86.664062 271.941406 C 86.671875 272.316406 86.753906 272.675781 86.902344 273.015625 C 87.054688 273.359375 87.265625 273.660156 87.539062 273.917969 C 87.808594 274.175781 88.121094 274.371094 88.46875 274.507812 C 88.816406 274.640625 89.179688 274.703125 89.554688 274.695312 C 91.332031 274.652344 93.136719 274.628906 94.9375 274.609375 L 94.9375 282.925781 C 94.9375 283.300781 95.011719 283.660156 95.152344 284.003906 C 95.296875 284.351562 95.5 284.65625 95.765625 284.921875 C 96.03125 285.183594 96.335938 285.390625 96.679688 285.53125 C 97.027344 285.675781 97.386719 285.746094 97.761719 285.746094 C 98.136719 285.746094 98.496094 285.675781 98.839844 285.53125 C 99.1875 285.390625 99.492188 285.183594 99.757812 284.921875 C 100.019531 284.65625 100.226562 284.351562 100.367188 284.003906 C 100.511719 283.660156 100.582031 283.300781 100.582031 282.925781 L 100.582031 274.589844 C 115.429688 274.738281 129.378906 275.945312 140.15625 278.019531 C 153.285156 280.558594 156.976562 283.515625 157.285156 284.417969 C 157.183594 284.648438 156.285156 286.203125 150.609375 288.152344 C 150.261719 288.277344 149.953125 288.464844 149.683594 288.714844 C 149.410156 288.960938 149.195312 289.253906 149.035156 289.585938 C 148.878906 289.917969 148.789062 290.269531 148.765625 290.636719 C 148.746094 291.003906 148.792969 291.363281 148.914062 291.710938 C 149.03125 292.058594 149.210938 292.371094 149.453125 292.652344 C 149.695312 292.929688 149.980469 293.152344 150.308594 293.316406 C 150.636719 293.484375 150.984375 293.582031 151.351562 293.613281 C 151.71875 293.644531 152.078125 293.601562 152.429688 293.492188 C 159.476562 291.0625 162.898438 288.097656 162.898438 284.425781 C 162.898438 279.335938 156.152344 275.5 142.261719 272.691406 C 130.992188 270.414062 116.277344 269.097656 100.535156 268.941406 L 100.535156 227.019531 L 108.546875 231.699219 C 110.304688 232.722656 111.953125 233.898438 113.496094 235.222656 C 115.039062 236.550781 116.453125 238.003906 117.730469 239.582031 C 119.011719 241.164062 120.136719 242.847656 121.113281 244.632812 C 122.089844 246.417969 122.894531 248.277344 123.53125 250.210938 C 123.640625 250.574219 123.820312 250.902344 124.0625 251.195312 C 124.304688 251.488281 124.59375 251.722656 124.933594 251.898438 C 125.269531 252.074219 125.628906 252.175781 126.007812 252.207031 C 126.386719 252.238281 126.757812 252.191406 127.117188 252.074219 C 127.476562 251.953125 127.800781 251.769531 128.089844 251.519531 C 128.375 251.269531 128.601562 250.972656 128.769531 250.632812 C 128.9375 250.289062 129.03125 249.929688 129.050781 249.550781 C 129.074219 249.171875 129.019531 248.800781 128.890625 248.445312 C 128.148438 246.1875 127.207031 244.015625 126.070312 241.933594 C 124.929688 239.847656 123.617188 237.882812 122.121094 236.035156 C 120.628906 234.1875 118.980469 232.492188 117.179688 230.941406 C 115.375 229.394531 113.449219 228.023438 111.398438 226.824219 L 100.535156 220.472656 L 100.535156 196.160156 C 102.179688 195.234375 103.765625 194.222656 105.300781 193.125 C 162.3125 179.703125 152.601562 114.753906 147.347656 79.78125 L 147.046875 77.746094 C 142.949219 50.300781 147.773438 41.28125 149.21875 39.285156 C 150.738281 39.195312 152.207031 38.882812 153.632812 38.347656 C 153.855469 38.265625 154.074219 38.171875 154.300781 38.074219 C 163.859375 39.863281 173.503906 40.796875 183.234375 40.875 L 183.421875 40.875 C 175.835938 54.128906 154.773438 94.160156 164.070312 114.921875 C 167.070312 121.601562 172.792969 125.765625 181.066406 127.234375 C 184.355469 127.832031 187.675781 128.136719 191.019531 128.148438 C 200.125 128.148438 207.953125 125.671875 213.671875 120.867188 C 219.875 115.664062 223.160156 108 223.160156 98.699219 C 223.160156 80.738281 202.011719 51.210938 193.765625 40.375 Z M 188.910156 28.335938 C 189.253906 27.230469 190.359375 26.324219 192.179688 25.65625 C 191.171875 27.398438 189.605469 29.566406 188.945312 30.511719 C 188.929688 30.53125 188.914062 30.550781 188.902344 30.574219 C 188.703125 29.828125 188.703125 29.082031 188.902344 28.335938 Z M 85.722656 211.800781 L 94.9375 203.742188 L 94.9375 217.179688 Z M 144.167969 143.410156 C 140.527344 163.527344 131.003906 176.894531 115.132812 183.964844 C 121.257812 176.5 126.289062 166.152344 128.515625 151.796875 C 128.566406 151.429688 128.546875 151.066406 128.453125 150.707031 C 128.363281 150.347656 128.207031 150.019531 127.984375 149.722656 C 127.765625 149.425781 127.496094 149.179688 127.175781 148.988281 C 126.859375 148.796875 126.519531 148.671875 126.152344 148.617188 C 125.785156 148.558594 125.421875 148.574219 125.0625 148.660156 C 124.699219 148.746094 124.371094 148.898438 124.070312 149.117188 C 123.769531 149.332031 123.519531 149.597656 123.324219 149.914062 C 123.128906 150.230469 123 150.570312 122.9375 150.933594 C 120.359375 167.570312 113.664062 179.960938 102.988281 187.921875 C 102.503906 188.105469 102.097656 188.394531 101.773438 188.796875 C 98.507812 191.0625 95.015625 192.898438 91.296875 194.308594 C 86.914062 195.960938 82.398438 197.0625 77.75 197.617188 C 88.351562 190.410156 96.230469 178.453125 101.226562 161.945312 C 101.34375 161.585938 101.386719 161.214844 101.355469 160.835938 C 101.324219 160.457031 101.222656 160.101562 101.046875 159.761719 C 100.871094 159.425781 100.636719 159.136719 100.34375 158.894531 C 100.050781 158.652344 99.722656 158.476562 99.359375 158.367188 C 98.996094 158.257812 98.625 158.222656 98.25 158.261719 C 97.871094 158.300781 97.515625 158.410156 97.183594 158.59375 C 96.851562 158.777344 96.566406 159.019531 96.332031 159.316406 C 96.09375 159.613281 95.925781 159.945312 95.824219 160.3125 C 90.3125 178.519531 81.183594 190.613281 68.679688 196.25 C 57.519531 201.277344 45.773438 200.160156 37.882812 198.355469 C 53.621094 193.289062 67.957031 178.855469 80.554688 155.351562 C 80.730469 155.023438 80.835938 154.671875 80.875 154.300781 C 80.910156 153.925781 80.875 153.5625 80.765625 153.203125 C 80.65625 152.84375 80.484375 152.519531 80.246094 152.230469 C 80.011719 151.941406 79.726562 151.710938 79.398438 151.53125 C 79.066406 151.355469 78.714844 151.25 78.34375 151.210938 C 77.96875 151.175781 77.605469 151.210938 77.246094 151.320312 C 76.890625 151.429688 76.566406 151.601562 76.273438 151.839844 C 75.984375 152.074219 75.753906 152.359375 75.574219 152.6875 C 62.648438 176.816406 48.09375 190.714844 32.328125 194 C 28.527344 194.769531 24.699219 194.910156 20.851562 194.421875 C 17 193.9375 13.328125 192.847656 9.835938 191.15625 C 18.332031 187.480469 34.316406 177.410156 52.734375 150.332031 C 68.171875 127.644531 87.59375 117.738281 104.558594 111.046875 C 106.269531 110.371094 108.007812 109.757812 109.324219 109.296875 C 114.785156 107.398438 132.527344 99.226562 132.527344 73.851562 C 132.527344 63.800781 131.550781 54.246094 130.707031 45.820312 C 128.847656 27.679688 127.515625 14.566406 136.480469 9.957031 C 143.464844 6.355469 150.863281 8.636719 155.09375 12.5 C 159.015625 16.074219 160.296875 20.84375 158.519531 25.246094 C 156.878906 29.3125 154.578125 31.921875 151.6875 33.039062 C 147.367188 34.695312 142.859375 32.515625 142.820312 32.503906 C 142.488281 32.34375 142.136719 32.253906 141.769531 32.234375 C 141.402344 32.210938 141.042969 32.261719 140.695312 32.378906 C 140.34375 32.5 140.03125 32.679688 139.753906 32.921875 C 139.476562 33.164062 139.253906 33.449219 139.085938 33.78125 C 138.921875 34.109375 138.824219 34.457031 138.792969 34.824219 C 138.765625 35.191406 138.804688 35.550781 138.914062 35.902344 C 139.027344 36.253906 139.199219 36.574219 139.4375 36.855469 C 139.671875 37.140625 139.953125 37.367188 140.277344 37.542969 C 141.199219 37.976562 142.148438 38.328125 143.132812 38.59375 C 140.625 43.914062 138.003906 55.332031 141.46875 78.566406 L 141.773438 80.605469 C 144.394531 98.183594 148 122.238281 144.179688 143.410156 Z M 160.339844 33.355469 C 161.691406 31.621094 162.78125 29.734375 163.605469 27.695312 C 169.726562 30.847656 176.101562 33.351562 182.734375 35.203125 C 175.222656 35.136719 167.757812 34.519531 160.339844 33.355469 Z M 210.042969 116.550781 C 203.730469 121.847656 193.535156 123.71875 182.078125 121.679688 C 175.644531 120.539062 171.441406 117.574219 169.222656 112.628906 C 165.25 103.753906 167.640625 88.410156 176.132812 68.253906 C 179.828125 59.609375 184.015625 51.207031 188.695312 43.054688 C 196.144531 52.800781 217.542969 82.21875 217.542969 98.710938 C 217.542969 106.394531 215 112.398438 210.042969 116.550781 Z M 210.042969 116.550781 " fill-opacity="1" fill-rule="nonzero"/></g><path fill="rgb(33.729553%, 23.919678%, 25.489807%)" d="M 193.953125 88.273438 L 193.804688 88.210938 L 193.804688 78.84375 C 195.6875 78.9375 197.4375 79.464844 199.058594 80.421875 L 200.242188 77.304688 C 198.335938 76.214844 196.285156 75.664062 194.089844 75.648438 L 194.089844 71.09375 L 191.160156 71.09375 L 191.160156 75.867188 C 186.808594 76.574219 184.023438 79.554688 184.023438 83.484375 C 184.023438 87.410156 186.730469 89.550781 191.160156 91.375 L 191.160156 101.886719 C 188.832031 101.808594 186.6875 101.136719 184.730469 99.871094 L 183.589844 103.039062 C 185.25 104.222656 188.089844 105.074219 190.828125 105.121094 L 190.828125 109.898438 L 193.804688 109.898438 L 193.804688 104.964844 C 198.664062 104.160156 201.277344 100.664062 201.277344 96.925781 C 201.277344 92.722656 198.820312 90.261719 193.953125 88.273438 Z M 188.089844 82.882812 C 188.089844 82.4375 188.167969 82.003906 188.316406 81.585938 C 188.464844 81.167969 188.675781 80.785156 188.957031 80.4375 C 189.234375 80.089844 189.5625 79.800781 189.941406 79.566406 C 190.320312 79.332031 190.726562 79.167969 191.160156 79.070312 L 191.160156 86.960938 C 189.015625 85.832031 188.089844 84.683594 188.089844 82.882812 Z M 193.804688 101.550781 L 193.804688 92.5625 C 196.011719 93.777344 197.164062 95.203125 197.164062 97.261719 C 197.164062 99.320312 195.875 100.882812 193.804688 101.550781 Z M 193.804688 101.550781 " fill-opacity="1" fill-rule="nonzero"/><path fill="rgb(33.729553%, 23.919678%, 25.489807%)" d="M 93.46875 280.070312 C 93.457031 279.699219 93.375 279.339844 93.21875 279 C 93.066406 278.65625 92.851562 278.359375 92.578125 278.101562 C 92.300781 277.847656 91.988281 277.652344 91.636719 277.523438 C 91.289062 277.390625 90.925781 277.332031 90.550781 277.347656 C 84.945312 277.484375 79.378906 278.003906 73.847656 278.914062 C 69.277344 279.757812 65.039062 281.007812 65.039062 284.425781 C 65.039062 287.726562 68.921875 288.957031 73.117188 289.796875 C 73.300781 289.832031 73.488281 289.851562 73.675781 289.851562 C 73.996094 289.851562 74.3125 289.800781 74.613281 289.695312 C 74.917969 289.589844 75.195312 289.4375 75.449219 289.238281 C 75.699219 289.039062 75.910156 288.800781 76.082031 288.527344 C 76.253906 288.257812 76.375 287.964844 76.445312 287.648438 C 76.515625 287.335938 76.53125 287.019531 76.496094 286.699219 C 76.457031 286.378906 76.367188 286.078125 76.226562 285.789062 C 76.085938 285.5 75.898438 285.242188 75.671875 285.015625 C 75.441406 284.789062 75.179688 284.609375 74.890625 284.472656 C 80.144531 283.601562 85.4375 283.105469 90.761719 282.992188 C 91.136719 282.976562 91.492188 282.890625 91.828125 282.734375 C 92.167969 282.578125 92.464844 282.363281 92.71875 282.089844 C 92.972656 281.816406 93.164062 281.503906 93.292969 281.15625 C 93.425781 280.804688 93.484375 280.445312 93.46875 280.070312 Z M 93.46875 280.070312 " fill-opacity="1" fill-rule="nonzero"/><path fill="rgb(33.729553%, 23.919678%, 25.489807%)" d="M 113.695312 277.941406 C 113.320312 277.90625 112.953125 277.941406 112.597656 278.050781 C 112.238281 278.160156 111.914062 278.335938 111.625 278.574219 C 111.335938 278.8125 111.105469 279.097656 110.929688 279.429688 C 110.753906 279.757812 110.648438 280.113281 110.613281 280.484375 C 110.578125 280.859375 110.613281 281.222656 110.722656 281.582031 C 110.835938 281.9375 111.007812 282.261719 111.246094 282.550781 C 111.488281 282.839844 111.773438 283.070312 112.101562 283.246094 C 112.433594 283.421875 112.785156 283.527344 113.160156 283.5625 C 115.871094 283.816406 118.015625 284.121094 119.714844 284.417969 C 114.34375 285.289062 108.941406 285.773438 103.503906 285.875 C 103.128906 285.882812 102.769531 285.957031 102.425781 286.105469 C 102.082031 286.253906 101.78125 286.464844 101.523438 286.734375 C 101.261719 287 101.0625 287.308594 100.925781 287.65625 C 100.789062 288.003906 100.722656 288.367188 100.726562 288.738281 C 100.734375 289.113281 100.808594 289.472656 100.957031 289.816406 C 101.105469 290.160156 101.3125 290.460938 101.582031 290.722656 C 101.851562 290.980469 102.15625 291.179688 102.503906 291.320312 C 102.851562 291.457031 103.214844 291.523438 103.585938 291.519531 L 103.679688 291.519531 C 109.417969 291.398438 115.121094 290.878906 120.789062 289.964844 C 125.460938 289.121094 129.785156 287.867188 129.785156 284.425781 C 129.785156 281.457031 127.050781 279.214844 113.695312 277.941406 Z M 113.695312 277.941406 " fill-opacity="1" fill-rule="nonzero"/><g clip-path="url(#id2)"><path fill="rgb(33.729553%, 23.919678%, 25.489807%)" d="M 113.882812 293.851562 C 108.539062 294.148438 103 294.300781 97.414062 294.300781 C 81.398438 294.300781 66.214844 293.085938 54.671875 290.847656 C 41.527344 288.285156 37.835938 285.351562 37.539062 284.425781 C 37.847656 283.496094 41.707031 280.425781 55.539062 277.855469 C 55.917969 277.800781 56.269531 277.671875 56.597656 277.472656 C 56.921875 277.269531 57.195312 277.015625 57.417969 276.703125 C 57.640625 276.390625 57.792969 276.050781 57.875 275.675781 C 57.957031 275.304688 57.964844 274.929688 57.894531 274.554688 C 57.824219 274.175781 57.683594 273.828125 57.472656 273.511719 C 57.261719 273.191406 57 272.925781 56.679688 272.714844 C 56.359375 272.503906 56.015625 272.363281 55.636719 272.292969 C 55.261719 272.222656 54.886719 272.226562 54.515625 272.308594 C 39.285156 275.132812 31.886719 279.09375 31.886719 284.449219 C 31.886719 289.535156 38.636719 293.371094 52.523438 296.175781 C 64.546875 298.601562 80.492188 299.945312 97.4375 299.945312 C 103.125 299.945312 108.769531 299.792969 114.222656 299.488281 C 114.59375 299.46875 114.949219 299.375 115.289062 299.214844 C 115.625 299.050781 115.917969 298.832031 116.167969 298.550781 C 116.417969 298.273438 116.605469 297.957031 116.730469 297.601562 C 116.851562 297.25 116.902344 296.886719 116.882812 296.511719 C 116.863281 296.136719 116.769531 295.78125 116.609375 295.445312 C 116.445312 295.109375 116.226562 294.8125 115.945312 294.566406 C 115.667969 294.316406 115.351562 294.128906 114.996094 294.003906 C 114.644531 293.878906 114.28125 293.828125 113.90625 293.851562 Z M 113.882812 293.851562 " fill-opacity="1" fill-rule="nonzero"/></g><path fill="rgb(100%, 100%, 100%)" d="M 150.898438 17.402344 C 150.898438 17.699219 150.871094 17.984375 150.8125 18.257812 C 150.75 18.53125 150.667969 18.773438 150.558594 18.980469 C 150.449219 19.191406 150.320312 19.351562 150.175781 19.464844 C 150.035156 19.578125 149.882812 19.636719 149.730469 19.636719 C 149.574219 19.636719 149.425781 19.578125 149.28125 19.464844 C 149.136719 19.351562 149.011719 19.191406 148.902344 18.980469 C 148.789062 18.773438 148.707031 18.53125 148.648438 18.257812 C 148.585938 17.984375 148.558594 17.699219 148.558594 17.402344 C 148.558594 17.105469 148.585938 16.820312 148.648438 16.546875 C 148.707031 16.273438 148.789062 16.03125 148.902344 15.824219 C 149.011719 15.613281 149.136719 15.453125 149.28125 15.339844 C 149.425781 15.226562 149.574219 15.167969 149.730469 15.167969 C 149.882812 15.167969 150.035156 15.226562 150.175781 15.339844 C 150.320312 15.453125 150.449219 15.613281 150.558594 15.824219 C 150.667969 16.03125 150.75 16.273438 150.8125 16.546875 C 150.871094 16.820312 150.898438 17.105469 150.898438 17.402344 Z M 150.898438 17.402344 " fill-opacity="1" fill-rule="nonzero"/></svg>