<svg xmlns="http://www.w3.org/2000/svg" xmlns:xlink="http://www.w3.org/1999/xlink" width="500" zoomAndPan="magnify" viewBox="0 0 375 374.999991" height="500" preserveAspectRatio="xMidYMid meet" version="1.0"><defs><clipPath id="id1"><path d="M 104.125 77 L 270.625 77 L 270.625 295 L 104.125 295 Z M 104.125 77 " clip-rule="nonzero"/></clipPath><clipPath id="id2"><path d="M 127 278 L 192 278 L 192 299.085938 L 127 299.085938 Z M 127 278 " clip-rule="nonzero"/></clipPath></defs><path fill="rgb(97.648621%, 92.939758%, 19.60907%)" d="M 242.261719 101.828125 C 236.539062 100.378906 231.0625 98.285156 225.835938 95.539062 C 225.808594 95.613281 225.785156 95.6875 225.753906 95.765625 C 225.054688 97.601562 224.058594 99.257812 222.765625 100.742188 C 229.289062 101.820312 235.859375 102.316406 242.46875 102.230469 C 242.398438 102.078125 242.328125 101.953125 242.261719 101.828125 Z M 242.261719 101.828125 " fill-opacity="1" fill-rule="nonzero"/><path fill="rgb(100%, 93.328857%, 94.119263%)" d="M 220.03125 84.507812 C 216.757812 81.527344 211.039062 79.757812 205.636719 82.539062 C 199.203125 85.851562 198.710938 93.683594 200.8125 107.617188 C 201.769531 113.984375 201.683594 120.691406 201.929688 128.507812 C 201.929688 128.929688 201.929688 130.371094 201.929688 130.769531 C 202.171875 144.394531 195.140625 152.9375 182 157.417969 C 170.386719 161.375 153.972656 169.875 143.089844 187.277344 C 129.539062 208.929688 116.851562 215.882812 110.589844 218.097656 C 113.3125 219.503906 116.191406 220.417969 119.226562 220.847656 C 122.261719 221.273438 125.28125 221.183594 128.289062 220.582031 C 140.199219 218.101562 151.15625 207.695312 160.863281 189.550781 C 160.964844 189.359375 161.101562 189.195312 161.269531 189.054688 C 161.441406 188.917969 161.628906 188.816406 161.839844 188.753906 C 162.046875 188.691406 162.261719 188.671875 162.480469 188.691406 C 162.695312 188.714844 162.902344 188.777344 163.09375 188.878906 C 163.285156 188.984375 163.453125 189.121094 163.589844 189.289062 C 163.730469 189.460938 163.828125 189.648438 163.894531 189.859375 C 163.957031 190.066406 163.976562 190.28125 163.953125 190.5 C 163.933594 190.714844 163.871094 190.921875 163.765625 191.113281 C 154.011719 209.316406 142.867188 220.167969 130.621094 223.414062 C 136.476562 224.976562 146.238281 226.390625 155.476562 222.226562 C 164.925781 217.964844 171.820312 208.859375 175.964844 195.148438 C 176.027344 194.9375 176.128906 194.75 176.265625 194.578125 C 176.40625 194.410156 176.570312 194.273438 176.765625 194.167969 C 176.957031 194.066406 177.164062 194.003906 177.382812 193.980469 C 177.601562 193.957031 177.816406 193.980469 178.023438 194.042969 C 178.234375 194.105469 178.425781 194.207031 178.59375 194.347656 C 178.765625 194.484375 178.902344 194.652344 179.003906 194.84375 C 179.109375 195.039062 179.171875 195.242188 179.191406 195.460938 C 179.214844 195.679688 179.195312 195.894531 179.128906 196.105469 C 175.191406 209.125 168.828125 218.3125 160.203125 223.472656 C 164.355469 223.152344 168.386719 222.265625 172.289062 220.816406 C 175.140625 219.734375 177.816406 218.324219 180.316406 216.578125 C 180.519531 216.3125 180.777344 216.125 181.09375 216.015625 C 189.1875 210.011719 194.257812 200.664062 196.207031 188.101562 C 196.238281 187.882812 196.3125 187.683594 196.425781 187.496094 C 196.539062 187.308594 196.683594 187.152344 196.859375 187.023438 C 197.035156 186.894531 197.230469 186.800781 197.441406 186.75 C 197.65625 186.699219 197.867188 186.6875 198.085938 186.722656 C 198.300781 186.757812 198.503906 186.828125 198.6875 186.941406 C 198.875 187.054688 199.035156 187.199219 199.164062 187.378906 C 199.292969 187.554688 199.382812 187.746094 199.433594 187.960938 C 199.488281 188.171875 199.496094 188.386719 199.460938 188.601562 C 197.652344 200.179688 193.40625 208.222656 188.324219 213.816406 C 201.382812 208.71875 209.167969 198.433594 212.03125 182.503906 C 214.894531 166.574219 212.199219 148.675781 210.222656 135.550781 L 209.996094 134.03125 C 207.28125 115.933594 209.542969 107.609375 211.425781 104 C 210.539062 103.789062 209.683594 103.484375 208.863281 103.09375 C 208.667969 102.996094 208.5 102.863281 208.359375 102.695312 C 208.214844 102.53125 208.109375 102.34375 208.042969 102.136719 C 207.972656 101.929688 207.949219 101.71875 207.964844 101.5 C 207.980469 101.28125 208.035156 101.074219 208.136719 100.878906 C 208.234375 100.683594 208.367188 100.515625 208.53125 100.375 C 208.695312 100.230469 208.882812 100.125 209.089844 100.054688 C 209.296875 99.988281 209.511719 99.960938 209.726562 99.976562 C 209.945312 99.992188 210.152344 100.050781 210.347656 100.148438 C 210.40625 100.175781 213.917969 101.871094 217.324219 100.574219 C 219.585938 99.703125 221.394531 97.664062 222.675781 94.5 C 224.097656 91.050781 223.097656 87.304688 220.03125 84.507812 Z M 220.03125 84.507812 " fill-opacity="1" fill-rule="nonzero"/><path fill="rgb(36.859131%, 82.749939%, 40.779114%)" d="M 229.84375 159.664062 C 231.5625 163.5 234.820312 165.796875 239.761719 166.671875 C 248.433594 168.214844 256.164062 166.785156 260.980469 162.75 C 264.777344 159.582031 266.707031 154.972656 266.707031 149.105469 C 266.707031 136.355469 249.863281 113.484375 244.71875 106.804688 C 239.996094 114.945312 223.4375 145.355469 229.84375 159.664062 Z M 229.84375 159.664062 " fill-opacity="1" fill-rule="nonzero"/><path fill="rgb(22.349548%, 70.979309%, 29.019165%)" d="M 244.925781 99.0625 L 245.324219 98.511719 C 245.960938 97.632812 247.65625 95.289062 248.273438 93.898438 C 248.058594 93.949219 247.789062 94.027344 247.46875 94.136719 C 245.8125 94.691406 244.8125 95.492188 244.492188 96.515625 C 244.28125 97.359375 244.332031 98.1875 244.640625 99 Z M 244.925781 99.0625 " fill-opacity="1" fill-rule="nonzero"/><path fill="rgb(58.039856%, 100%, 59.999084%)" d="M 260.980469 162.75 C 264.777344 159.582031 266.707031 154.972656 266.707031 149.105469 C 266.707031 136.355469 249.863281 113.484375 244.71875 106.804688 C 244.71875 106.804688 270.574219 146.503906 260.980469 162.75 Z M 260.980469 162.75 " fill-opacity="1" fill-rule="nonzero"/><path fill="rgb(19.219971%, 68.629456%, 21.958923%)" d="M 234.054688 128.519531 C 229.613281 139.578125 226.390625 151.964844 229.84375 159.679688 C 231.5625 163.515625 234.820312 165.808594 239.761719 166.6875 C 248.433594 168.230469 256.164062 166.800781 260.980469 162.765625 C 221.378906 173.265625 233.960938 128.839844 234.054688 128.519531 Z M 234.054688 128.519531 " fill-opacity="1" fill-rule="nonzero"/><path fill="rgb(19.219971%, 68.629456%, 21.958923%)" d="M 239.261719 123.738281 C 238.910156 124.191406 240.132812 140.519531 254.007812 153.816406 Z M 239.261719 123.738281 " fill-opacity="1" fill-rule="nonzero"/><path fill="rgb(91.758728%, 70.979309%, 73.728943%)" d="M 188.332031 213.816406 C 201.390625 208.71875 209.175781 198.433594 212.039062 182.503906 C 214.902344 166.574219 212.207031 148.675781 210.230469 135.550781 C 210.230469 135.550781 216.390625 186.363281 194.082031 201.789062 " fill-opacity="1" fill-rule="nonzero"/><path fill="rgb(91.758728%, 70.979309%, 73.728943%)" d="M 196.214844 188.101562 C 196.214844 188.101562 186.054688 213.777344 166.957031 215.738281 L 160.195312 223.472656 C 160.195312 223.472656 170.65625 222.71875 179.199219 219.261719 C 187.742188 215.808594 197.082031 196.71875 196.214844 188.101562 Z M 196.214844 188.101562 " fill-opacity="1" fill-rule="nonzero"/><path fill="rgb(91.758728%, 70.979309%, 73.728943%)" d="M 175.96875 195.148438 C 175.96875 195.148438 163.929688 217.425781 142.597656 217.566406 L 129.097656 223.472656 C 129.097656 223.472656 144.910156 232.667969 158.148438 222.757812 C 171.386719 212.84375 178.199219 201.8125 175.96875 195.148438 Z M 175.96875 195.148438 " fill-opacity="1" fill-rule="nonzero"/><path fill="rgb(91.758728%, 70.979309%, 73.728943%)" d="M 160.863281 189.550781 C 160.863281 189.550781 142.082031 215.386719 118.96875 213.816406 L 109.390625 217.566406 C 109.390625 217.566406 121.777344 227.519531 138.617188 218.214844 C 155.457031 208.90625 162.320312 190.332031 162.320312 190.332031 " fill-opacity="1" fill-rule="nonzero"/><path fill="rgb(91.758728%, 70.979309%, 73.728943%)" d="M 222.765625 90.164062 C 222.765625 90.164062 222.964844 98.375 209.035156 100.117188 C 209.035156 100.101562 224.203125 107.707031 222.765625 90.164062 Z M 222.765625 90.164062 " fill-opacity="1" fill-rule="nonzero"/><path fill="rgb(91.758728%, 70.979309%, 73.728943%)" d="M 208.882812 103.113281 L 209.328125 111.046875 L 213.285156 103.113281 Z M 208.882812 103.113281 " fill-opacity="1" fill-rule="nonzero"/><path fill="rgb(33.729553%, 23.919678%, 25.489807%)" d="M 217.378906 89.4375 C 217.378906 89.988281 217.308594 90.515625 217.164062 91.023438 C 217.019531 91.53125 216.816406 91.980469 216.550781 92.371094 C 216.285156 92.757812 215.980469 93.058594 215.636719 93.269531 C 215.289062 93.476562 214.929688 93.582031 214.554688 93.582031 C 214.179688 93.582031 213.820312 93.476562 213.476562 93.269531 C 213.128906 93.058594 212.824219 92.757812 212.558594 92.371094 C 212.292969 91.980469 212.089844 91.53125 211.949219 91.023438 C 211.804688 90.515625 211.730469 89.988281 211.730469 89.4375 C 211.730469 88.890625 211.804688 88.359375 211.949219 87.851562 C 212.089844 87.34375 212.292969 86.898438 212.558594 86.507812 C 212.824219 86.121094 213.128906 85.820312 213.476562 85.609375 C 213.820312 85.398438 214.179688 85.292969 214.554688 85.292969 C 214.929688 85.292969 215.289062 85.398438 215.636719 85.609375 C 215.980469 85.820312 216.285156 86.121094 216.550781 86.507812 C 216.816406 86.898438 217.019531 87.34375 217.164062 87.851562 C 217.308594 88.359375 217.378906 88.890625 217.378906 89.4375 Z M 217.378906 89.4375 " fill-opacity="1" fill-rule="nonzero"/><g clip-path="url(#id1)"><path fill="rgb(33.729553%, 23.919678%, 25.489807%)" d="M 248.550781 105.621094 C 253.050781 105.171875 255.382812 104.441406 255.597656 104.375 C 255.832031 104.300781 256.042969 104.1875 256.234375 104.042969 C 256.429688 103.894531 256.589844 103.71875 256.722656 103.515625 C 256.855469 103.3125 256.949219 103.089844 257.003906 102.855469 C 257.0625 102.621094 257.074219 102.378906 257.050781 102.140625 C 257.023438 101.898438 256.957031 101.667969 256.851562 101.449219 C 256.742188 101.230469 256.605469 101.039062 256.429688 100.867188 C 256.257812 100.699219 256.0625 100.5625 255.839844 100.460938 C 255.621094 100.359375 255.390625 100.296875 255.148438 100.273438 C 253.097656 100.085938 251.128906 99.824219 249.265625 99.484375 C 251.664062 96.058594 253.171875 93.265625 251.699219 91.261719 C 250.230469 89.257812 247.265625 90.25 246.269531 90.574219 C 242.699219 91.773438 241.382812 93.867188 240.90625 95.410156 C 240.699219 96.074219 240.601562 96.753906 240.609375 97.445312 C 235.894531 96.074219 231.367188 94.226562 227.039062 91.90625 C 227.195312 88.214844 225.632812 84.546875 222.550781 81.734375 C 218.320312 77.875 210.921875 75.585938 203.917969 79.207031 C 194.683594 83.960938 195.867188 95.492188 197.359375 110.109375 C 197.988281 116.289062 198.714844 123.292969 198.714844 130.574219 C 198.714844 146.714844 187.636719 151.839844 184.238281 153.023438 C 183.214844 153.382812 181.871094 153.855469 180.527344 154.378906 C 168.058594 159.304688 152.183594 167.253906 139.964844 185.214844 C 121.246094 212.722656 106.25 215.386719 106.117188 215.386719 C 105.703125 215.445312 105.335938 215.613281 105.023438 215.890625 C 104.707031 216.167969 104.492188 216.511719 104.382812 216.914062 C 104.273438 217.320312 104.28125 217.722656 104.414062 218.121094 C 104.542969 218.523438 104.773438 218.851562 105.101562 219.113281 C 107.695312 220.988281 110.511719 222.421875 113.558594 223.40625 C 116.601562 224.390625 119.726562 224.886719 122.925781 224.886719 L 123.464844 224.886719 C 123.535156 224.933594 123.613281 224.972656 123.691406 225.007812 C 129.527344 227.472656 135.617188 228.722656 141.953125 228.753906 C 145.617188 228.773438 149.203125 228.265625 152.71875 227.238281 C 153.371094 227.304688 154.644531 227.398438 156.386719 227.398438 C 161.363281 227.398438 166.230469 226.671875 170.988281 225.214844 L 163.054688 232.15625 C 162.515625 232.628906 162.277344 233.226562 162.347656 233.941406 C 162.417969 234.65625 162.761719 235.195312 163.382812 235.558594 L 174.886719 242.285156 L 174.886719 276.011719 C 173.507812 276.011719 172.128906 276.042969 170.769531 276.074219 C 170.492188 276.082031 170.222656 276.140625 169.96875 276.253906 C 169.714844 276.367188 169.488281 276.527344 169.296875 276.726562 C 169.105469 276.929688 168.957031 277.160156 168.859375 277.421875 C 168.757812 277.683594 168.710938 277.953125 168.71875 278.230469 C 168.726562 278.511719 168.785156 278.777344 168.898438 279.03125 C 169.011719 279.289062 169.167969 279.511719 169.371094 279.703125 C 169.574219 279.894531 169.804688 280.042969 170.066406 280.140625 C 170.324219 280.242188 170.59375 280.289062 170.875 280.28125 C 172.199219 280.25 173.542969 280.234375 174.886719 280.21875 L 174.886719 286.417969 C 174.886719 286.695312 174.941406 286.964844 175.046875 287.222656 C 175.152344 287.480469 175.304688 287.707031 175.503906 287.90625 C 175.699219 288.101562 175.929688 288.253906 176.1875 288.363281 C 176.445312 288.46875 176.710938 288.519531 176.992188 288.523438 C 177.269531 288.519531 177.539062 288.46875 177.796875 288.359375 C 178.054688 288.253906 178.28125 288.101562 178.476562 287.90625 C 178.675781 287.707031 178.828125 287.480469 178.933594 287.222656 C 179.042969 286.964844 179.09375 286.695312 179.09375 286.417969 L 179.09375 280.207031 C 190.160156 280.3125 200.558594 281.214844 208.59375 282.761719 C 218.378906 284.652344 221.128906 286.855469 221.359375 287.53125 C 221.28125 287.703125 220.613281 288.859375 216.382812 290.3125 C 216.125 290.40625 215.894531 290.546875 215.691406 290.734375 C 215.488281 290.917969 215.328125 291.132812 215.210938 291.382812 C 215.09375 291.628906 215.027344 291.890625 215.007812 292.164062 C 214.992188 292.4375 215.03125 292.707031 215.117188 292.964844 C 215.207031 293.226562 215.339844 293.460938 215.523438 293.667969 C 215.703125 293.875 215.914062 294.039062 216.160156 294.164062 C 216.402344 294.289062 216.664062 294.363281 216.9375 294.382812 C 217.210938 294.40625 217.480469 294.375 217.742188 294.292969 C 222.992188 292.484375 225.542969 290.273438 225.542969 287.535156 C 225.542969 283.742188 220.515625 280.882812 210.164062 278.789062 C 201.761719 277.09375 190.792969 276.113281 179.058594 275.992188 L 179.058594 244.746094 L 185.03125 248.234375 C 187.671875 249.773438 189.953125 251.734375 191.875 254.109375 C 193.800781 256.488281 195.242188 259.128906 196.199219 262.03125 C 196.28125 262.304688 196.414062 262.546875 196.59375 262.765625 C 196.777344 262.984375 196.992188 263.160156 197.242188 263.289062 C 197.496094 263.421875 197.761719 263.496094 198.046875 263.519531 C 198.328125 263.542969 198.605469 263.507812 198.871094 263.421875 C 199.140625 263.332031 199.382812 263.195312 199.597656 263.007812 C 199.8125 262.820312 199.980469 262.601562 200.105469 262.347656 C 200.230469 262.09375 200.300781 261.824219 200.316406 261.539062 C 200.332031 261.257812 200.289062 260.980469 200.195312 260.714844 C 199.640625 259.035156 198.941406 257.414062 198.089844 255.863281 C 197.242188 254.308594 196.261719 252.84375 195.148438 251.464844 C 194.035156 250.089844 192.808594 248.824219 191.464844 247.671875 C 190.121094 246.515625 188.683594 245.492188 187.15625 244.601562 L 179.058594 239.867188 L 179.058594 221.742188 C 180.285156 221.054688 181.46875 220.300781 182.609375 219.480469 C 225.105469 209.476562 217.867188 161.0625 213.953125 134.996094 L 213.726562 133.480469 C 210.671875 113.019531 214.269531 106.296875 215.347656 104.808594 C 216.480469 104.742188 217.574219 104.507812 218.636719 104.113281 C 218.804688 104.046875 218.964844 103.980469 219.132812 103.90625 C 226.261719 105.242188 233.449219 105.9375 240.699219 105.992188 L 240.839844 105.992188 C 235.1875 115.875 219.488281 145.710938 226.417969 161.191406 C 228.652344 166.167969 232.917969 169.269531 239.085938 170.363281 C 241.539062 170.8125 244.011719 171.039062 246.503906 171.046875 C 253.292969 171.046875 259.128906 169.203125 263.390625 165.617188 C 268.015625 161.742188 270.460938 156.027344 270.460938 149.097656 C 270.460938 135.710938 254.699219 113.699219 248.550781 105.621094 Z M 244.929688 96.644531 C 245.1875 95.824219 246.011719 95.148438 247.371094 94.652344 C 246.617188 95.949219 245.453125 97.566406 244.957031 98.269531 C 244.945312 98.285156 244.9375 98.300781 244.925781 98.316406 C 244.777344 97.757812 244.777344 97.203125 244.925781 96.644531 Z M 168.019531 233.402344 L 174.886719 227.394531 L 174.886719 237.410156 Z M 211.582031 182.421875 C 208.867188 197.421875 201.769531 207.382812 189.9375 212.652344 C 194.503906 207.089844 198.253906 199.375 199.914062 188.675781 C 199.953125 188.402344 199.9375 188.128906 199.871094 187.863281 C 199.800781 187.59375 199.683594 187.351562 199.519531 187.128906 C 199.355469 186.90625 199.15625 186.722656 198.917969 186.582031 C 198.679688 186.4375 198.425781 186.347656 198.152344 186.304688 C 197.878906 186.261719 197.609375 186.273438 197.339844 186.335938 C 197.070312 186.402344 196.824219 186.515625 196.601562 186.675781 C 196.375 186.839844 196.191406 187.035156 196.046875 187.273438 C 195.898438 187.507812 195.804688 187.761719 195.757812 188.03125 C 193.835938 200.433594 188.84375 209.667969 180.886719 215.601562 C 180.523438 215.738281 180.222656 215.957031 179.980469 216.253906 C 177.546875 217.945312 174.945312 219.3125 172.171875 220.363281 C 168.90625 221.59375 165.539062 222.414062 162.074219 222.828125 C 169.976562 217.457031 175.851562 208.546875 179.574219 196.238281 C 179.660156 195.96875 179.695312 195.695312 179.671875 195.414062 C 179.648438 195.128906 179.570312 194.863281 179.441406 194.613281 C 179.308594 194.363281 179.132812 194.144531 178.917969 193.964844 C 178.699219 193.785156 178.453125 193.652344 178.183594 193.570312 C 177.914062 193.488281 177.636719 193.464844 177.355469 193.492188 C 177.074219 193.523438 176.808594 193.605469 176.558594 193.742188 C 176.3125 193.878906 176.101562 194.058594 175.925781 194.28125 C 175.75 194.503906 175.625 194.75 175.546875 195.023438 C 171.441406 208.59375 164.636719 217.609375 155.316406 221.8125 C 146.996094 225.558594 138.242188 224.722656 132.359375 223.378906 C 144.089844 219.601562 154.777344 208.84375 164.164062 191.324219 C 164.296875 191.082031 164.375 190.816406 164.402344 190.539062 C 164.429688 190.261719 164.402344 189.992188 164.324219 189.722656 C 164.242188 189.457031 164.113281 189.214844 163.9375 189 C 163.761719 188.785156 163.546875 188.609375 163.300781 188.476562 C 163.054688 188.347656 162.792969 188.265625 162.515625 188.238281 C 162.238281 188.210938 161.96875 188.238281 161.699219 188.320312 C 161.433594 188.398438 161.191406 188.527344 160.976562 188.707031 C 160.761719 188.882812 160.585938 189.09375 160.453125 189.339844 C 150.816406 207.324219 139.96875 217.683594 128.21875 220.132812 C 125.382812 220.707031 122.53125 220.8125 119.664062 220.449219 C 116.792969 220.085938 114.054688 219.273438 111.453125 218.015625 C 117.785156 215.273438 129.699219 207.765625 143.429688 187.585938 C 154.933594 170.671875 169.414062 163.289062 182.058594 158.296875 C 183.332031 157.796875 184.628906 157.339844 185.609375 156.996094 C 189.679688 155.578125 202.90625 149.488281 202.90625 130.574219 C 202.90625 123.082031 202.175781 115.960938 201.546875 109.679688 C 200.164062 96.15625 199.167969 86.386719 205.851562 82.945312 C 211.058594 80.265625 216.574219 81.964844 219.726562 84.84375 C 222.648438 87.507812 223.605469 91.0625 222.277344 94.34375 C 221.058594 97.375 219.34375 99.320312 217.1875 100.152344 C 213.96875 101.386719 210.605469 99.761719 210.578125 99.753906 C 210.332031 99.636719 210.070312 99.570312 209.796875 99.554688 C 209.519531 99.539062 209.253906 99.574219 208.992188 99.664062 C 208.734375 99.75 208.5 99.886719 208.292969 100.066406 C 208.085938 100.246094 207.917969 100.460938 207.796875 100.707031 C 207.671875 100.949219 207.597656 101.210938 207.578125 101.484375 C 207.554688 101.757812 207.585938 102.027344 207.667969 102.289062 C 207.75 102.550781 207.878906 102.789062 208.054688 103 C 208.230469 103.210938 208.441406 103.378906 208.683594 103.507812 C 209.367188 103.832031 210.078125 104.09375 210.808594 104.292969 C 208.941406 108.261719 206.988281 116.769531 209.570312 134.089844 L 209.796875 135.609375 C 211.75 148.710938 214.4375 166.640625 211.59375 182.421875 Z M 223.636719 100.386719 C 224.644531 99.097656 225.457031 97.691406 226.070312 96.171875 C 230.632812 98.519531 235.386719 100.386719 240.332031 101.769531 C 234.730469 101.71875 229.167969 101.257812 223.636719 100.386719 Z M 260.683594 162.402344 C 255.980469 166.351562 248.378906 167.746094 239.839844 166.226562 C 235.046875 165.375 231.910156 163.167969 230.257812 159.480469 C 227.296875 152.863281 229.078125 141.425781 235.40625 126.402344 C 238.160156 119.957031 241.285156 113.695312 244.773438 107.617188 C 250.324219 114.882812 266.277344 136.8125 266.277344 149.105469 C 266.277344 154.832031 264.382812 159.308594 260.683594 162.402344 Z M 260.683594 162.402344 " fill-opacity="1" fill-rule="nonzero"/></g><path fill="rgb(33.729553%, 23.919678%, 25.489807%)" d="M 248.691406 141.324219 L 248.582031 141.277344 L 248.582031 134.296875 C 249.984375 134.367188 251.289062 134.757812 252.496094 135.472656 L 253.378906 133.148438 C 251.957031 132.335938 250.429688 131.925781 248.796875 131.914062 L 248.796875 128.519531 L 246.609375 128.519531 L 246.609375 132.074219 C 243.367188 132.605469 241.289062 134.828125 241.289062 137.753906 C 241.289062 140.679688 243.308594 142.277344 246.609375 143.636719 L 246.609375 151.472656 C 244.875 151.414062 243.277344 150.914062 241.820312 149.96875 L 240.96875 152.332031 C 242.203125 153.214844 244.320312 153.847656 246.359375 153.882812 L 246.359375 157.445312 L 248.582031 157.445312 L 248.582031 153.765625 C 252.203125 153.167969 254.152344 150.5625 254.152344 147.773438 C 254.152344 144.640625 252.320312 142.808594 248.691406 141.324219 Z M 244.320312 137.304688 C 244.320312 136.972656 244.378906 136.652344 244.488281 136.339844 C 244.601562 136.027344 244.757812 135.742188 244.96875 135.484375 C 245.175781 135.226562 245.421875 135.007812 245.703125 134.835938 C 245.984375 134.660156 246.285156 134.535156 246.609375 134.464844 L 246.609375 140.347656 C 245.011719 139.503906 244.320312 138.648438 244.320312 137.304688 Z M 248.582031 151.222656 L 248.582031 144.523438 C 250.226562 145.425781 251.085938 146.492188 251.085938 148.023438 C 251.085938 149.558594 250.125 150.726562 248.582031 151.222656 Z M 248.582031 151.222656 " fill-opacity="1" fill-rule="nonzero"/><path fill="rgb(33.729553%, 23.919678%, 25.489807%)" d="M 173.792969 284.292969 C 173.785156 284.011719 173.722656 283.746094 173.605469 283.492188 C 173.492188 283.234375 173.332031 283.015625 173.125 282.824219 C 172.921875 282.632812 172.6875 282.488281 172.425781 282.390625 C 172.164062 282.292969 171.894531 282.25 171.617188 282.261719 C 167.4375 282.363281 163.289062 282.75 159.164062 283.425781 C 155.757812 284.054688 152.601562 284.988281 152.601562 287.535156 C 152.601562 289.996094 155.496094 290.914062 158.621094 291.539062 C 158.757812 291.566406 158.898438 291.578125 159.039062 291.578125 C 159.277344 291.582031 159.511719 291.542969 159.738281 291.464844 C 159.964844 291.386719 160.171875 291.273438 160.359375 291.121094 C 160.546875 290.972656 160.703125 290.796875 160.832031 290.59375 C 160.960938 290.390625 161.050781 290.171875 161.101562 289.9375 C 161.15625 289.707031 161.167969 289.46875 161.140625 289.230469 C 161.113281 288.992188 161.046875 288.765625 160.941406 288.550781 C 160.835938 288.335938 160.695312 288.144531 160.523438 287.976562 C 160.355469 287.808594 160.160156 287.671875 159.941406 287.570312 C 163.859375 286.921875 167.804688 286.554688 171.773438 286.46875 C 172.050781 286.457031 172.316406 286.390625 172.570312 286.277344 C 172.824219 286.160156 173.042969 286 173.230469 285.796875 C 173.421875 285.59375 173.5625 285.359375 173.660156 285.097656 C 173.757812 284.839844 173.800781 284.570312 173.792969 284.292969 Z M 173.792969 284.292969 " fill-opacity="1" fill-rule="nonzero"/><path fill="rgb(33.729553%, 23.919678%, 25.489807%)" d="M 188.867188 282.703125 C 188.589844 282.675781 188.316406 282.703125 188.050781 282.785156 C 187.78125 282.867188 187.542969 282.996094 187.324219 283.175781 C 187.109375 283.351562 186.9375 283.566406 186.804688 283.8125 C 186.675781 284.058594 186.597656 284.320312 186.570312 284.597656 C 186.542969 284.875 186.570312 285.148438 186.652344 285.417969 C 186.734375 285.683594 186.867188 285.925781 187.042969 286.140625 C 187.222656 286.355469 187.433594 286.527344 187.679688 286.65625 C 187.929688 286.789062 188.191406 286.867188 188.46875 286.894531 C 190.492188 287.082031 192.089844 287.308594 193.355469 287.53125 C 189.351562 288.179688 185.324219 288.542969 181.269531 288.617188 C 180.992188 288.621094 180.726562 288.679688 180.46875 288.789062 C 180.214844 288.902344 179.988281 289.054688 179.792969 289.257812 C 179.601562 289.457031 179.453125 289.6875 179.347656 289.945312 C 179.246094 290.203125 179.199219 290.472656 179.203125 290.75 C 179.207031 291.03125 179.261719 291.296875 179.375 291.554688 C 179.484375 291.808594 179.640625 292.035156 179.839844 292.230469 C 180.039062 292.421875 180.269531 292.570312 180.527344 292.675781 C 180.785156 292.777344 181.054688 292.828125 181.332031 292.824219 L 181.402344 292.824219 C 185.679688 292.734375 189.929688 292.347656 194.15625 291.664062 C 197.640625 291.035156 200.859375 290.101562 200.859375 287.535156 C 200.859375 285.324219 198.824219 283.652344 188.867188 282.703125 Z M 188.867188 282.703125 " fill-opacity="1" fill-rule="nonzero"/><g clip-path="url(#id2)"><path fill="rgb(33.729553%, 23.919678%, 25.489807%)" d="M 189.007812 294.5625 C 185.027344 294.78125 180.894531 294.894531 176.734375 294.894531 C 164.792969 294.894531 153.476562 293.992188 144.875 292.320312 C 135.074219 290.414062 132.324219 288.226562 132.101562 287.535156 C 132.332031 286.84375 135.210938 284.554688 145.519531 282.640625 C 145.800781 282.597656 146.0625 282.5 146.308594 282.351562 C 146.550781 282.203125 146.753906 282.011719 146.917969 281.78125 C 147.085938 281.546875 147.199219 281.292969 147.257812 281.015625 C 147.320312 280.738281 147.328125 280.457031 147.273438 280.175781 C 147.222656 279.898438 147.117188 279.636719 146.960938 279.398438 C 146.804688 279.164062 146.605469 278.964844 146.371094 278.808594 C 146.132812 278.648438 145.875 278.542969 145.59375 278.492188 C 145.3125 278.4375 145.035156 278.445312 144.753906 278.503906 C 133.402344 280.609375 127.890625 283.5625 127.890625 287.554688 C 127.890625 291.34375 132.921875 294.203125 143.273438 296.292969 C 152.234375 298.105469 164.121094 299.105469 176.75 299.105469 C 180.988281 299.105469 185.199219 298.992188 189.261719 298.765625 C 189.539062 298.75 189.804688 298.679688 190.054688 298.558594 C 190.308594 298.4375 190.527344 298.273438 190.710938 298.066406 C 190.898438 297.859375 191.039062 297.621094 191.128906 297.359375 C 191.222656 297.09375 191.261719 296.824219 191.246094 296.546875 C 191.230469 296.265625 191.160156 296 191.039062 295.75 C 190.917969 295.5 190.753906 295.28125 190.546875 295.09375 C 190.335938 294.90625 190.101562 294.769531 189.839844 294.675781 C 189.574219 294.585938 189.304688 294.546875 189.023438 294.5625 Z M 189.007812 294.5625 " fill-opacity="1" fill-rule="nonzero"/></g><path fill="rgb(100%, 100%, 100%)" d="M 216.601562 88.496094 C 216.601562 88.71875 216.578125 88.929688 216.535156 89.136719 C 216.488281 89.339844 216.425781 89.519531 216.34375 89.675781 C 216.261719 89.832031 216.167969 89.953125 216.0625 90.035156 C 215.953125 90.121094 215.84375 90.164062 215.726562 90.164062 C 215.613281 90.164062 215.5 90.121094 215.394531 90.035156 C 215.285156 89.953125 215.191406 89.832031 215.109375 89.675781 C 215.027344 89.519531 214.964844 89.339844 214.921875 89.136719 C 214.875 88.929688 214.855469 88.71875 214.855469 88.496094 C 214.855469 88.277344 214.875 88.066406 214.921875 87.859375 C 214.964844 87.65625 215.027344 87.476562 215.109375 87.320312 C 215.191406 87.164062 215.285156 87.042969 215.394531 86.960938 C 215.5 86.875 215.613281 86.832031 215.726562 86.832031 C 215.84375 86.832031 215.953125 86.875 216.0625 86.960938 C 216.167969 87.042969 216.261719 87.164062 216.34375 87.320312 C 216.425781 87.476562 216.488281 87.65625 216.535156 87.859375 C 216.578125 88.066406 216.601562 88.277344 216.601562 88.496094 Z M 216.601562 88.496094 " fill-opacity="1" fill-rule="nonzero"/></svg>